<?xml version="1.0" encoding="utf-8"?>
<!-- Generator: Adobe Illustrator 21.0.1, SVG Export Plug-In . SVG Version: 6.00 Build 0)  -->
<svg version="1.1" id="Objects" xmlns="http://www.w3.org/2000/svg" xmlns:xlink="http://www.w3.org/1999/xlink" x="0px" y="0px"
	 viewBox="0 0 656.3 457.6" style="enable-background:new 0 0 656.3 457.6;" xml:space="preserve">
<style type="text/css">
	.st0{fill:url(#SVGID_1_);}
	.st1{fill:#FFFFFF;}
	.st2{opacity:0.4;}
	.st3{fill:#F2F2F2;}
	.st4{fill:url(#SVGID_2_);}
	.st5{fill:#5D6770;}
	.st6{fill:url(#SVGID_3_);}
	.st7{fill:#333333;}
	.st8{fill:url(#SVGID_4_);}
	.st9{fill:url(#SVGID_5_);}
	.st10{fill:#575257;}
	.st11{font-family:'Baskerville';}
	.st12{font-size:17px;}
	.st13{font-size:16.9532px;}
	.st14{font-size:16.9336px;}
	.st15{font-size:17.0136px;}
	.st16{font-size:17.0543px;}
	.st17{font-size:16.9745px;}
	.st18{font-size:17.0221px;}
	.st19{font-size:16.9387px;}
	.st20{font-family:'ArialMT';}
	.st21{font-size:36px;}
	.st22{font-size:20px;}
	.st23{letter-spacing:-1;}
	.st24{fill:#4D4D4D;}
	.st25{font-family:'Helvetica-Light';}
	.st26{font-size:10px;}
	.st27{fill:#666666;}
	.st28{letter-spacing:-2;}
	.st29{fill:#999999;}
	.st30{font-size:8px;}
</style>
<title>diploma</title>
<g id="Design">
	
		<linearGradient id="SVGID_1_" gradientUnits="userSpaceOnUse" x1="321.1393" y1="554.23" x2="325.6393" y2="-26.25" gradientTransform="matrix(1 0 0 -1 0 457.2)">
		<stop  offset="0" style="stop-color:#C7B9B8"/>
		<stop  offset="0.16" style="stop-color:#C1B4B3"/>
		<stop  offset="0.37" style="stop-color:#B1A4A5"/>
		<stop  offset="0.6" style="stop-color:#958B8D"/>
		<stop  offset="0.86" style="stop-color:#6F686C"/>
		<stop  offset="1" style="stop-color:#575257"/>
	</linearGradient>
	<rect y="0" class="st0" width="647.3" height="457.5"/>
	<rect x="12.2" y="12.2" class="st1" width="622.9" height="433.1"/>
	<g class="st2">
		<polygon class="st3" points="471.4,446.1 478.2,446.1 480,445.1 481.9,446.1 488.7,446.1 480,441.3 		"/>
		<polygon class="st3" points="393,446.1 399.8,446.1 401.7,445.1 403.6,446.1 410.3,446.1 401.7,441.3 		"/>
		<polygon class="st3" points="634.7,446.1 634.7,442.5 628.1,446.1 		"/>
		<polygon class="st3" points="549.8,446.1 556.5,446.1 558.4,445.1 560.3,446.1 567,446.1 558.4,441.3 		"/>
		<polygon class="st3" points="158,446.1 164.8,446.1 166.6,445.1 168.5,446.1 175.3,446.1 166.6,441.3 		"/>
		<polygon class="st3" points="314.7,446.1 321.5,446.1 323.3,445.1 325.2,446.1 332,446.1 323.3,441.3 		"/>
		<polygon class="st3" points="79.6,446.1 86.4,446.1 88.3,445.1 90.2,446.1 96.9,446.1 88.3,441.3 		"/>
		<polygon class="st3" points="12,446.1 18.6,446.1 12,442.5 		"/>
		<polygon class="st3" points="236.3,446.1 243.1,446.1 245,445.1 246.9,446.1 253.6,446.1 245,441.3 		"/>
		<polygon class="st3" points="532.1,446.1 538.9,446.1 558.4,435.3 577.9,446.1 584.7,446.1 558.4,431.5 		"/>
		<polygon class="st3" points="453.8,446.1 460.5,446.1 480,435.3 499.6,446.1 506.3,446.1 480,431.5 		"/>
		<polygon class="st3" points="140.4,446.1 147.1,446.1 166.6,435.3 186.1,446.1 192.9,446.1 166.6,431.5 		"/>
		<polygon class="st3" points="218.7,446.1 225.5,446.1 245,435.3 264.5,446.1 271.3,446.1 245,431.5 		"/>
		<polygon class="st3" points="617.3,446.1 634.7,436.4 634.7,432.7 610.5,446.1 		"/>
		<polygon class="st3" points="12,436.4 29.4,446.1 36.2,446.1 12,432.7 		"/>
		<polygon class="st3" points="297.1,446.1 303.8,446.1 323.3,435.3 342.9,446.1 349.6,446.1 323.3,431.5 		"/>
		<polygon class="st3" points="62,446.1 68.8,446.1 88.3,435.3 107.8,446.1 114.6,446.1 88.3,431.5 		"/>
		<polygon class="st3" points="375.4,446.1 382.2,446.1 401.7,435.3 421.2,446.1 428,446.1 401.7,431.5 		"/>
		<polygon class="st3" points="558.4,421.6 519.2,443.5 480,421.6 440.9,443.5 401.7,421.6 362.5,443.5 323.3,421.6 284.2,443.5 
			245,421.6 205.8,443.5 166.6,421.6 127.5,443.5 88.3,421.6 49.1,443.5 12,422.8 12,426.6 47.1,446.1 51.1,446.1 88.3,425.4 
			125.4,446.1 129.5,446.1 166.6,425.4 203.8,446.1 207.8,446.1 245,425.4 282.1,446.1 286.2,446.1 323.3,425.4 360.5,446.1 
			364.5,446.1 401.7,425.4 438.8,446.1 442.9,446.1 480,425.4 517.2,446.1 521.3,446.1 558.4,425.4 595.6,446.1 599.6,446.1 
			634.7,426.6 634.7,422.8 597.6,443.5 		"/>
		<polygon class="st3" points="558.4,411.8 519.2,433.7 480,411.8 440.9,433.7 401.7,411.8 362.5,433.7 323.3,411.8 284.2,433.7 
			245,411.8 205.8,433.7 166.6,411.8 127.5,433.7 88.3,411.8 49.1,433.7 12,413 12,416.8 49.1,437.5 88.3,415.6 127.5,437.5 
			166.6,415.6 205.8,437.5 245,415.6 284.2,437.5 323.3,415.6 362.5,437.5 401.7,415.6 440.9,437.5 480,415.6 519.2,437.5 
			558.4,415.6 597.6,437.5 634.7,416.8 634.7,413 597.6,433.7 		"/>
		<polygon class="st3" points="558.4,402 519.2,423.8 480,402 440.9,423.8 401.7,402 362.5,423.8 323.3,402 284.2,423.8 245,402 
			205.8,423.8 166.6,402 127.5,423.8 88.3,402 49.1,423.8 12,403.1 12,406.9 49.1,427.6 88.3,405.7 127.5,427.6 166.6,405.7 
			205.8,427.6 245,405.7 284.2,427.6 323.3,405.7 362.5,427.6 401.7,405.7 440.9,427.6 480,405.7 519.2,427.6 558.4,405.7 
			597.6,427.6 634.7,406.9 634.7,403.1 597.6,423.8 		"/>
		<polygon class="st3" points="558.4,392.1 519.2,414 480,392.1 440.9,414 401.7,392.1 362.5,414 323.3,392.1 284.2,414 245,392.1 
			205.8,414 166.6,392.1 127.5,414 88.3,392.1 49.1,414 12,393.3 12,397.1 49.1,417.8 88.3,395.9 127.5,417.8 166.6,395.9 
			205.8,417.8 245,395.9 284.2,417.8 323.3,395.9 362.5,417.8 401.7,395.9 440.9,417.8 480,395.9 519.2,417.8 558.4,395.9 
			597.6,417.8 634.7,397.1 634.7,393.3 597.6,414 		"/>
		<polygon class="st3" points="558.4,382.3 519.2,404.1 480,382.3 440.9,404.1 401.7,382.3 362.5,404.1 323.3,382.3 284.2,404.1 
			245,382.3 205.8,404.1 166.6,382.3 127.5,404.1 88.3,382.3 49.1,404.1 12,383.5 12,387.2 49.1,407.9 88.3,386 127.5,407.9 
			166.6,386 205.8,407.9 245,386 284.2,407.9 323.3,386 362.5,407.9 401.7,386 440.9,407.9 480,386 519.2,407.9 558.4,386 
			597.6,407.9 634.7,387.2 634.7,383.5 597.6,404.1 		"/>
		<polygon class="st3" points="558.4,372.4 519.2,394.3 480,372.4 440.9,394.3 401.7,372.4 362.5,394.3 323.3,372.4 284.2,394.3 
			245,372.4 205.8,394.3 166.6,372.4 127.5,394.3 88.3,372.4 49.1,394.3 12,373.6 12,377.4 49.1,398.1 88.3,376.2 127.5,398.1 
			166.6,376.2 205.8,398.1 245,376.2 284.2,398.1 323.3,376.2 362.5,398.1 401.7,376.2 440.9,398.1 480,376.2 519.2,398.1 
			558.4,376.2 597.6,398.1 634.7,377.4 634.7,373.6 597.6,394.3 		"/>
		<polygon class="st3" points="558.4,362.6 519.2,384.5 480,362.6 440.9,384.5 401.7,362.6 362.5,384.5 323.3,362.6 284.2,384.5 
			245,362.6 205.8,384.5 166.6,362.6 127.5,384.5 88.3,362.6 49.1,384.5 12,363.8 12,367.5 49.1,388.2 88.3,366.4 127.5,388.2 
			166.6,366.4 205.8,388.2 245,366.4 284.2,388.2 323.3,366.4 362.5,388.2 401.7,366.4 440.9,388.2 480,366.4 519.2,388.2 
			558.4,366.4 597.6,388.2 634.7,367.5 634.7,363.8 597.6,384.5 		"/>
		<polygon class="st3" points="558.4,352.8 519.2,374.6 480,352.8 440.9,374.6 401.7,352.8 362.5,374.6 323.3,352.8 284.2,374.6 
			245,352.8 205.8,374.6 166.6,352.8 127.5,374.6 88.3,352.8 49.1,374.6 12,353.9 12,357.7 49.1,378.4 88.3,356.5 127.5,378.4 
			166.6,356.5 205.8,378.4 245,356.5 284.2,378.4 323.3,356.5 362.5,378.4 401.7,356.5 440.9,378.4 480,356.5 519.2,378.4 
			558.4,356.5 597.6,378.4 634.7,357.7 634.7,353.9 597.6,374.6 		"/>
		<polygon class="st3" points="558.4,342.9 519.2,364.8 480,342.9 440.9,364.8 401.7,342.9 362.5,364.8 323.3,342.9 284.2,364.8 
			245,342.9 205.8,364.8 166.6,342.9 127.5,364.8 88.3,342.9 49.1,364.8 12,344.1 12,347.9 49.1,368.6 88.3,346.7 127.5,368.6 
			166.6,346.7 205.8,368.6 245,346.7 284.2,368.6 323.3,346.7 362.5,368.6 401.7,346.7 440.9,368.6 480,346.7 519.2,368.6 
			558.4,346.7 597.6,368.6 634.7,347.9 634.7,344.1 597.6,364.8 		"/>
		<polygon class="st3" points="558.4,333.1 519.2,354.9 480,333.1 440.9,354.9 401.7,333.1 362.5,354.9 323.3,333.1 284.2,354.9 
			245,333.1 205.8,354.9 166.6,333.1 127.5,354.9 88.3,333.1 49.1,354.9 12,334.2 12,338 49.1,358.7 88.3,336.9 127.5,358.7 
			166.6,336.9 205.8,358.7 245,336.9 284.2,358.7 323.3,336.9 362.5,358.7 401.7,336.9 440.9,358.7 480,336.9 519.2,358.7 
			558.4,336.9 597.6,358.7 634.7,338 634.7,334.2 597.6,354.9 		"/>
		<polygon class="st3" points="558.4,323.2 519.2,345.1 480,323.2 440.9,345.1 401.7,323.2 362.5,345.1 323.3,323.2 284.2,345.1 
			245,323.2 205.8,345.1 166.6,323.2 127.5,345.1 88.3,323.2 49.1,345.1 12,324.4 12,328.2 49.1,348.9 88.3,327 127.5,348.9 
			166.6,327 205.8,348.9 245,327 284.2,348.9 323.3,327 362.5,348.9 401.7,327 440.9,348.9 480,327 519.2,348.9 558.4,327 
			597.6,348.9 634.7,328.2 634.7,324.4 597.6,345.1 		"/>
		<polygon class="st3" points="558.4,303.5 519.2,325.4 480,303.5 440.9,325.4 401.7,303.5 362.5,325.4 323.3,303.5 284.2,325.4 
			245,303.5 205.8,325.4 166.6,303.5 127.5,325.4 88.3,303.5 49.1,325.4 12,304.7 12,308.5 49.1,329.2 88.3,307.3 127.5,329.2 
			166.6,307.3 205.8,329.2 245,307.3 284.2,329.2 323.3,307.3 362.5,329.2 401.7,307.3 440.9,329.2 480,307.3 519.2,329.2 
			558.4,307.3 597.6,329.2 634.7,308.5 634.7,304.7 597.6,325.4 		"/>
		<polygon class="st3" points="558.4,293.7 519.2,315.6 480,293.7 440.9,315.6 401.7,293.7 362.5,315.6 323.3,293.7 284.2,315.6 
			245,293.7 205.8,315.6 166.6,293.7 127.5,315.6 88.3,293.7 49.1,315.6 12,294.9 12,298.7 49.1,319.4 88.3,297.5 127.5,319.4 
			166.6,297.5 205.8,319.4 245,297.5 284.2,319.4 323.3,297.5 362.5,319.4 401.7,297.5 440.9,319.4 480,297.5 519.2,319.4 
			558.4,297.5 597.6,319.4 634.7,298.7 634.7,294.9 597.6,315.6 		"/>
		<polygon class="st3" points="558.4,283.9 519.2,305.7 480,283.9 440.9,305.7 401.7,283.9 362.5,305.7 323.3,283.9 284.2,305.7 
			245,283.9 205.8,305.7 166.6,283.9 127.5,305.7 88.3,283.9 49.1,305.7 12,285 12,288.8 49.1,309.5 88.3,287.6 127.5,309.5 
			166.6,287.6 205.8,309.5 245,287.6 284.2,309.5 323.3,287.6 362.5,309.5 401.7,287.6 440.9,309.5 480,287.6 519.2,309.5 
			558.4,287.6 597.6,309.5 634.7,288.8 634.7,285 597.6,305.7 		"/>
		<polygon class="st3" points="558.4,274 519.2,295.9 480,274 440.9,295.9 401.7,274 362.5,295.9 323.3,274 284.2,295.9 245,274 
			205.8,295.9 166.6,274 127.5,295.9 88.3,274 49.1,295.9 12,275.2 12,279 49.1,299.7 88.3,277.8 127.5,299.7 166.6,277.8 
			205.8,299.7 245,277.8 284.2,299.7 323.3,277.8 362.5,299.7 401.7,277.8 440.9,299.7 480,277.8 519.2,299.7 558.4,277.8 
			597.6,299.7 634.7,279 634.7,275.2 597.6,295.9 		"/>
		<polygon class="st3" points="558.4,264.2 519.2,286 480,264.2 440.9,286 401.7,264.2 362.5,286 323.3,264.2 284.2,286 245,264.2 
			205.8,286 166.6,264.2 127.5,286 88.3,264.2 49.1,286 12,265.4 12,269.1 49.1,289.8 88.3,268 127.5,289.8 166.6,268 205.8,289.8 
			245,268 284.2,289.8 323.3,268 362.5,289.8 401.7,268 440.9,289.8 480,268 519.2,289.8 558.4,268 597.6,289.8 634.7,269.1 
			634.7,265.4 597.6,286 		"/>
		<polygon class="st3" points="558.4,254.3 519.2,276.2 480,254.3 440.9,276.2 401.7,254.3 362.5,276.2 323.3,254.3 284.2,276.2 
			245,254.3 205.8,276.2 166.6,254.3 127.5,276.2 88.3,254.3 49.1,276.2 12,255.5 12,259.3 49.1,280 88.3,258.1 127.5,280 
			166.6,258.1 205.8,280 245,258.1 284.2,280 323.3,258.1 362.5,280 401.7,258.1 440.9,280 480,258.1 519.2,280 558.4,258.1 
			597.6,280 634.7,259.3 634.7,255.5 597.6,276.2 		"/>
		<polygon class="st3" points="558.4,244.5 519.2,266.4 480,244.5 440.9,266.4 401.7,244.5 362.5,266.4 323.3,244.5 284.2,266.4 
			245,244.5 205.8,266.4 166.6,244.5 127.5,266.4 88.3,244.5 49.1,266.4 12,245.7 12,249.4 49.1,270.1 88.3,248.3 127.5,270.1 
			166.6,248.3 205.8,270.1 245,248.3 284.2,270.1 323.3,248.3 362.5,270.1 401.7,248.3 440.9,270.1 480,248.3 519.2,270.1 
			558.4,248.3 597.6,270.1 634.7,249.4 634.7,245.7 597.6,266.4 		"/>
		<polygon class="st3" points="558.4,234.6 519.2,256.5 480,234.6 440.9,256.5 401.7,234.6 362.5,256.5 323.3,234.6 284.2,256.5 
			245,234.6 205.8,256.5 166.6,234.6 127.5,256.5 88.3,234.6 49.1,256.5 12,235.8 12,239.6 49.1,260.3 88.3,238.4 127.5,260.3 
			166.6,238.4 205.8,260.3 245,238.4 284.2,260.3 323.3,238.4 362.5,260.3 401.7,238.4 440.9,260.3 480,238.4 519.2,260.3 
			558.4,238.4 597.6,260.3 634.7,239.6 634.7,235.8 597.6,256.5 		"/>
		<polygon class="st3" points="558.4,224.8 519.2,246.7 480,224.8 440.9,246.7 401.7,224.8 362.5,246.7 323.3,224.8 284.2,246.7 
			245,224.8 205.8,246.7 166.6,224.8 127.5,246.7 88.3,224.8 49.1,246.7 12,226 12,229.8 49.1,250.5 88.3,228.6 127.5,250.5 
			166.6,228.6 205.8,250.5 245,228.6 284.2,250.5 323.3,228.6 362.5,250.5 401.7,228.6 440.9,250.5 480,228.6 519.2,250.5 
			558.4,228.6 597.6,250.5 634.7,229.8 634.7,226 597.6,246.7 		"/>
		<polygon class="st3" points="558.4,215 519.2,236.8 480,215 440.9,236.8 401.7,215 362.5,236.8 323.3,215 284.2,236.8 245,215 
			205.8,236.8 166.6,215 127.5,236.8 88.3,215 49.1,236.8 12,216.1 12,219.9 49.1,240.6 88.3,218.7 127.5,240.6 166.6,218.7 
			205.8,240.6 245,218.7 284.2,240.6 323.3,218.7 362.5,240.6 401.7,218.7 440.9,240.6 480,218.7 519.2,240.6 558.4,218.7 
			597.6,240.6 634.7,219.9 634.7,216.1 597.6,236.8 		"/>
		<polygon class="st3" points="558.4,205.1 519.2,227 480,205.1 440.9,227 401.7,205.1 362.5,227 323.3,205.1 284.2,227 245,205.1 
			205.8,227 166.6,205.1 127.5,227 88.3,205.1 49.1,227 12,206.3 12,210.1 49.1,230.8 88.3,208.9 127.5,230.8 166.6,208.9 
			205.8,230.8 245,208.9 284.2,230.8 323.3,208.9 362.5,230.8 401.7,208.9 440.9,230.8 480,208.9 519.2,230.8 558.4,208.9 
			597.6,230.8 634.7,210.1 634.7,206.3 597.6,227 		"/>
		<polygon class="st3" points="558.4,195.3 519.2,217.2 480,195.3 440.9,217.2 401.7,195.3 362.5,217.2 323.3,195.3 284.2,217.2 
			245,195.3 205.8,217.2 166.6,195.3 127.5,217.2 88.3,195.3 49.1,217.2 12,196.5 12,200.2 49.1,220.9 88.3,199.1 127.5,220.9 
			166.6,199.1 205.8,220.9 245,199.1 284.2,220.9 323.3,199.1 362.5,220.9 401.7,199.1 440.9,220.9 480,199.1 519.2,220.9 
			558.4,199.1 597.6,220.9 634.7,200.2 634.7,196.5 597.6,217.2 		"/>
		<polygon class="st3" points="558.4,185.4 519.2,207.3 480,185.4 440.9,207.3 401.7,185.4 362.5,207.3 323.3,185.4 284.2,207.3 
			245,185.4 205.8,207.3 166.6,185.4 127.5,207.3 88.3,185.4 49.1,207.3 12,186.6 12,190.4 49.1,211.1 88.3,189.2 127.5,211.1 
			166.6,189.2 205.8,211.1 245,189.2 284.2,211.1 323.3,189.2 362.5,211.1 401.7,189.2 440.9,211.1 480,189.2 519.2,211.1 
			558.4,189.2 597.6,211.1 634.7,190.4 634.7,186.6 597.6,207.3 		"/>
		<polygon class="st3" points="558.4,175.6 519.2,197.5 480,175.6 440.9,197.5 401.7,175.6 362.5,197.5 323.3,175.6 284.2,197.5 
			245,175.6 205.8,197.5 166.6,175.6 127.5,197.5 88.3,175.6 49.1,197.5 12,176.8 12,180.6 49.1,201.2 88.3,179.4 127.5,201.2 
			166.6,179.4 205.8,201.2 245,179.4 284.2,201.2 323.3,179.4 362.5,201.2 401.7,179.4 440.9,201.2 480,179.4 519.2,201.2 
			558.4,179.4 597.6,201.2 634.7,180.6 634.7,176.8 597.6,197.5 		"/>
		<polygon class="st3" points="558.4,165.8 519.2,187.6 480,165.8 440.9,187.6 401.7,165.8 362.5,187.6 323.3,165.8 284.2,187.6 
			245,165.8 205.8,187.6 166.6,165.8 127.5,187.6 88.3,165.8 49.1,187.6 12,166.9 12,170.7 49.1,191.4 88.3,169.5 127.5,191.4 
			166.6,169.5 205.8,191.4 245,169.5 284.2,191.4 323.3,169.5 362.5,191.4 401.7,169.5 440.9,191.4 480,169.5 519.2,191.4 
			558.4,169.5 597.6,191.4 634.7,170.7 634.7,166.9 597.6,187.6 		"/>
		<polygon class="st3" points="558.4,155.9 519.2,177.8 480,155.9 440.9,177.8 401.7,155.9 362.5,177.8 323.3,155.9 284.2,177.8 
			245,155.9 205.8,177.8 166.6,155.9 127.5,177.8 88.3,155.9 49.1,177.8 12,157.1 12,160.9 49.1,181.6 88.3,159.7 127.5,181.6 
			166.6,159.7 205.8,181.6 245,159.7 284.2,181.6 323.3,159.7 362.5,181.6 401.7,159.7 440.9,181.6 480,159.7 519.2,181.6 
			558.4,159.7 597.6,181.6 634.7,160.9 634.7,157.1 597.6,177.8 		"/>
		<polygon class="st3" points="558.4,146.1 519.2,167.9 480,146.1 440.9,167.9 401.7,146.1 362.5,167.9 323.3,146.1 284.2,167.9 
			245,146.1 205.8,167.9 166.6,146.1 127.5,167.9 88.3,146.1 49.1,167.9 12,147.3 12,151 49.1,171.7 88.3,149.8 127.5,171.7 
			166.6,149.8 205.8,171.7 245,149.8 284.2,171.7 323.3,149.8 362.5,171.7 401.7,149.8 440.9,171.7 480,149.8 519.2,171.7 
			558.4,149.8 597.6,171.7 634.7,151 634.7,147.3 597.6,167.9 		"/>
		<polygon class="st3" points="558.4,136.2 519.2,158.1 480,136.2 440.9,158.1 401.7,136.2 362.5,158.1 323.3,136.2 284.2,158.1 
			245,136.2 205.8,158.1 166.6,136.2 127.5,158.1 88.3,136.2 49.1,158.1 12,137.4 12,141.2 49.1,161.9 88.3,140 127.5,161.9 
			166.6,140 205.8,161.9 245,140 284.2,161.9 323.3,140 362.5,161.9 401.7,140 440.9,161.9 480,140 519.2,161.9 558.4,140 
			597.6,161.9 634.7,141.2 634.7,137.4 597.6,158.1 		"/>
		<polygon class="st3" points="558.4,126.4 519.2,148.3 480,126.4 440.9,148.3 401.7,126.4 362.5,148.3 323.3,126.4 284.2,148.3 
			245,126.4 205.8,148.3 166.6,126.4 127.5,148.3 88.3,126.4 49.1,148.3 12,127.6 12,131.3 49.1,152 88.3,130.2 127.5,152 
			166.6,130.2 205.8,152 245,130.2 284.2,152 323.3,130.2 362.5,152 401.7,130.2 440.9,152 480,130.2 519.2,152 558.4,130.2 
			597.6,152 634.7,131.3 634.7,127.6 597.6,148.3 		"/>
		<polygon class="st3" points="558.4,116.5 519.2,138.4 480,116.5 440.9,138.4 401.7,116.5 362.5,138.4 323.3,116.5 284.2,138.4 
			245,116.5 205.8,138.4 166.6,116.5 127.5,138.4 88.3,116.5 49.1,138.4 12,117.7 12,121.5 49.1,142.2 88.3,120.3 127.5,142.2 
			166.6,120.3 205.8,142.2 245,120.3 284.2,142.2 323.3,120.3 362.5,142.2 401.7,120.3 440.9,142.2 480,120.3 519.2,142.2 
			558.4,120.3 597.6,142.2 634.7,121.5 634.7,117.7 597.6,138.4 		"/>
		<polygon class="st3" points="558.4,106.7 519.2,128.6 480,106.7 440.9,128.6 401.7,106.7 362.5,128.6 323.3,106.7 284.2,128.6 
			245,106.7 205.8,128.6 166.6,106.7 127.5,128.6 88.3,106.7 49.1,128.6 12,107.9 12,111.7 49.1,132.3 88.3,110.5 127.5,132.3 
			166.6,110.5 205.8,132.3 245,110.5 284.2,132.3 323.3,110.5 362.5,132.3 401.7,110.5 440.9,132.3 480,110.5 519.2,132.3 
			558.4,110.5 597.6,132.3 634.7,111.7 634.7,107.9 597.6,128.6 		"/>
		<polygon class="st3" points="558.4,96.9 519.2,118.7 480,96.9 440.9,118.7 401.7,96.9 362.5,118.7 323.3,96.9 284.2,118.7 
			245,96.9 205.8,118.7 166.6,96.9 127.5,118.7 88.3,96.9 49.1,118.7 12,98 12,101.8 49.1,122.5 88.3,100.6 127.5,122.5 
			166.6,100.6 205.8,122.5 245,100.6 284.2,122.5 323.3,100.6 362.5,122.5 401.7,100.6 440.9,122.5 480,100.6 519.2,122.5 
			558.4,100.6 597.6,122.5 634.7,101.8 634.7,98 597.6,118.7 		"/>
		<polygon class="st3" points="558.4,87 519.2,108.9 480,87 440.9,108.9 401.7,87 362.5,108.9 323.3,87 284.2,108.9 245,87 
			205.8,108.9 166.6,87 127.5,108.9 88.3,87 49.1,108.9 12,88.2 12,92 49.1,112.7 88.3,90.8 127.5,112.7 166.6,90.8 205.8,112.7 
			245,90.8 284.2,112.7 323.3,90.8 362.5,112.7 401.7,90.8 440.9,112.7 480,90.8 519.2,112.7 558.4,90.8 597.6,112.7 634.7,92 
			634.7,88.2 597.6,108.9 		"/>
		<polygon class="st3" points="558.4,77.2 519.2,99.1 480,77.2 440.9,99.1 401.7,77.2 362.5,99.1 323.3,77.2 284.2,99.1 245,77.2 
			205.8,99.1 166.6,77.2 127.5,99.1 88.3,77.2 49.1,99.1 12,78.4 12,82.1 49.1,102.8 88.3,81 127.5,102.8 166.6,81 205.8,102.8 
			245,81 284.2,102.8 323.3,81 362.5,102.8 401.7,81 440.9,102.8 480,81 519.2,102.8 558.4,81 597.6,102.8 634.7,82.1 634.7,78.4 
			597.6,99.1 		"/>
		<polygon class="st3" points="558.4,67.3 519.2,89.2 480,67.3 440.9,89.2 401.7,67.3 362.5,89.2 323.3,67.3 284.2,89.2 245,67.3 
			205.8,89.2 166.6,67.3 127.5,89.2 88.3,67.3 49.1,89.2 12,68.5 12,72.3 49.1,93 88.3,71.1 127.5,93 166.6,71.1 205.8,93 245,71.1 
			284.2,93 323.3,71.1 362.5,93 401.7,71.1 440.9,93 480,71.1 519.2,93 558.4,71.1 597.6,93 634.7,72.3 634.7,68.5 597.6,89.2 		"/>
		<polygon class="st3" points="558.4,57.5 519.2,79.4 480,57.5 440.9,79.4 401.7,57.5 362.5,79.4 323.3,57.5 284.2,79.4 245,57.5 
			205.8,79.4 166.6,57.5 127.5,79.4 88.3,57.5 49.1,79.4 12,58.7 12,62.5 49.1,83.1 88.3,61.3 127.5,83.1 166.6,61.3 205.8,83.1 
			245,61.3 284.2,83.1 323.3,61.3 362.5,83.1 401.7,61.3 440.9,83.1 480,61.3 519.2,83.1 558.4,61.3 597.6,83.1 634.7,62.5 
			634.7,58.7 597.6,79.4 		"/>
		<polygon class="st3" points="558.4,47.7 519.2,69.5 480,47.7 440.9,69.5 401.7,47.7 362.5,69.5 323.3,47.7 284.2,69.5 245,47.7 
			205.8,69.5 166.6,47.7 127.5,69.5 88.3,47.7 49.1,69.5 12,48.8 12,52.6 49.1,73.3 88.3,51.4 127.5,73.3 166.6,51.4 205.8,73.3 
			245,51.4 284.2,73.3 323.3,51.4 362.5,73.3 401.7,51.4 440.9,73.3 480,51.4 519.2,73.3 558.4,51.4 597.6,73.3 634.7,52.6 
			634.7,48.8 597.6,69.5 		"/>
		<polygon class="st3" points="558.4,37.8 519.2,59.7 480,37.8 440.9,59.7 401.7,37.8 362.5,59.7 323.3,37.8 284.2,59.7 245,37.8 
			205.8,59.7 166.6,37.8 127.5,59.7 88.3,37.8 49.1,59.7 12,39 12,42.8 49.1,63.5 88.3,41.6 127.5,63.5 166.6,41.6 205.8,63.5 
			245,41.6 284.2,63.5 323.3,41.6 362.5,63.5 401.7,41.6 440.9,63.5 480,41.6 519.2,63.5 558.4,41.6 597.6,63.5 634.7,42.8 
			634.7,39 597.6,59.7 		"/>
		<polygon class="st3" points="558.4,28 519.2,49.8 480,28 440.9,49.8 401.7,28 362.5,49.8 323.3,28 284.2,49.8 245,28 205.8,49.8 
			166.6,28 127.5,49.8 88.3,28 49.1,49.8 12,29.2 12,32.9 49.1,53.6 88.3,31.7 127.5,53.6 166.6,31.7 205.8,53.6 245,31.7 
			284.2,53.6 323.3,31.7 362.5,53.6 401.7,31.7 440.9,53.6 480,31.7 519.2,53.6 558.4,31.7 597.6,53.6 634.7,32.9 634.7,29.2 
			597.6,49.8 		"/>
		<polygon class="st3" points="558.4,18.1 519.2,40 480,18.1 440.9,40 401.7,18.1 362.5,40 323.3,18.1 284.2,40 245,18.1 205.8,40 
			166.6,18.1 127.5,40 88.3,18.1 49.1,40 12,19.3 12,23.1 49.1,43.8 88.3,21.9 127.5,43.8 166.6,21.9 205.8,43.8 245,21.9 
			284.2,43.8 323.3,21.9 362.5,43.8 401.7,21.9 440.9,43.8 480,21.9 519.2,43.8 558.4,21.9 597.6,43.8 634.7,23.1 634.7,19.3 
			597.6,40 		"/>
		<polygon class="st3" points="244.1,12.5 237.4,12.5 205.8,30.2 174.2,12.5 167.5,12.5 205.8,33.9 		"/>
		<polygon class="st3" points="322.5,12.5 315.7,12.5 284.2,30.2 252.6,12.5 245.8,12.5 284.2,33.9 		"/>
		<polygon class="st3" points="165.8,12.5 159,12.5 127.5,30.2 95.9,12.5 89.1,12.5 127.5,33.9 		"/>
		<polygon class="st3" points="400.8,12.5 394.1,12.5 362.5,30.2 331,12.5 324.2,12.5 362.5,33.9 		"/>
		<polygon class="st3" points="87.4,12.5 80.7,12.5 49.1,30.2 17.5,12.5 12,12.5 12,13.2 49.1,33.9 		"/>
		<polygon class="st3" points="557.6,12.5 550.8,12.5 519.2,30.2 487.7,12.5 480.9,12.5 519.2,33.9 		"/>
		<polygon class="st3" points="566,12.5 559.3,12.5 597.6,33.9 634.7,13.2 634.7,12.5 629.2,12.5 597.6,30.2 		"/>
		<polygon class="st3" points="479.2,12.5 472.4,12.5 440.9,30.2 409.3,12.5 402.5,12.5 440.9,33.9 		"/>
		<polygon class="st3" points="226.5,12.5 219.8,12.5 205.8,20.3 191.9,12.5 185.1,12.5 205.8,24.1 		"/>
		<polygon class="st3" points="383.2,12.5 376.5,12.5 362.5,20.3 348.6,12.5 341.8,12.5 362.5,24.1 		"/>
		<polygon class="st3" points="148.1,12.5 141.4,12.5 127.5,20.3 113.5,12.5 106.8,12.5 127.5,24.1 		"/>
		<polygon class="st3" points="461.6,12.5 454.8,12.5 440.9,20.3 426.9,12.5 420.2,12.5 440.9,24.1 		"/>
		<polygon class="st3" points="583.7,12.5 576.9,12.5 597.6,24.1 618.3,12.5 611.5,12.5 597.6,20.3 		"/>
		<polygon class="st3" points="304.9,12.5 298.1,12.5 284.2,20.3 270.2,12.5 263.5,12.5 284.2,24.1 		"/>
		<polygon class="st3" points="539.9,12.5 533.2,12.5 519.2,20.3 505.3,12.5 498.5,12.5 519.2,24.1 		"/>
		<polygon class="st3" points="69.8,12.5 63,12.5 49.1,20.3 35.2,12.5 28.4,12.5 49.1,24.1 		"/>
		<polygon class="st3" points="597.6,14.2 600.7,12.5 594.5,12.5 		"/>
		<polygon class="st3" points="52.2,12.5 46,12.5 49.1,14.2 		"/>
		<polygon class="st3" points="522.3,12.5 516.2,12.5 519.2,14.2 		"/>
		<polygon class="st3" points="443.9,12.5 437.8,12.5 440.9,14.2 		"/>
		<polygon class="st3" points="287.2,12.5 281.1,12.5 284.2,14.2 		"/>
		<polygon class="st3" points="130.5,12.5 124.4,12.5 127.5,14.2 		"/>
		<polygon class="st3" points="365.6,12.5 359.5,12.5 362.5,14.2 		"/>
		<polygon class="st3" points="208.9,12.5 202.7,12.5 205.8,14.2 		"/>
		<polygon class="st3" points="559.4,313.5 520.2,335.4 481,313.5 441.9,335.4 402.7,313.5 363.5,335.4 324.3,313.5 285.2,335.4 
			246,313.5 206.8,335.4 167.6,313.5 128.5,335.4 89.3,313.5 50.1,335.4 13,314.7 13,318.5 50.1,339.2 89.3,317.3 128.5,339.2 
			167.6,317.3 206.8,339.2 246,317.3 285.2,339.2 324.3,317.3 363.5,339.2 402.7,317.3 441.9,339.2 481,317.3 520.2,339.2 
			559.4,317.3 598.6,339.2 635.7,318.5 635.7,314.7 598.6,335.4 		"/>
	</g>
	
		<linearGradient id="SVGID_2_" gradientUnits="userSpaceOnUse" x1="321.4743" y1="554.2" x2="325.9743" y2="-26.27" gradientTransform="matrix(1 0 0 -1 -0.33 457.17)">
		<stop  offset="0" style="stop-color:#C7B9B8"/>
		<stop  offset="0.16" style="stop-color:#C1B4B3"/>
		<stop  offset="0.37" style="stop-color:#B1A4A5"/>
		<stop  offset="0.6" style="stop-color:#958B8D"/>
		<stop  offset="0.86" style="stop-color:#6F686C"/>
		<stop  offset="1" style="stop-color:#575257"/>
	</linearGradient>
	<path class="st4" d="M22,22.1h603.3v413.3H22V22.1z M620.5,27H26.8v403.6h593.7V27z"/>
	<rect x="138.7" y="204.5" class="st5" width="1.2" height="0.8"/>
	<path class="st5" d="M505.7,205.3h-2.5v-0.8h2.5V205.3z M501.6,205.3h-2.5v-0.8h2.5V205.3z M497.4,205.3h-2.5v-0.8h2.5V205.3z
		 M493.2,205.3h-2.5v-0.8h2.5V205.3z M489.1,205.3h-2.5v-0.8h2.5V205.3z M484.9,205.3h-2.5v-0.8h2.5V205.3z M480.8,205.3h-2.5v-0.8
		h2.5V205.3z M476.6,205.3h-2.5v-0.8h2.6L476.6,205.3z M472.4,205.3H470v-0.8h2.5V205.3z M468.3,205.3h-2.5v-0.8h2.5V205.3z
		 M464.1,205.3h-2.5v-0.8h2.5L464.1,205.3z M460,205.3h-2.5v-0.8h2.5V205.3z M455.8,205.3h-2.5v-0.8h2.5V205.3z M451.6,205.3h-2.5
		v-0.8h2.5L451.6,205.3z M447.5,205.3H445v-0.8h2.5V205.3z M443.3,205.3h-2.5v-0.8h2.5V205.3z M439.2,205.3h-2.5v-0.8h2.5V205.3z
		 M435,205.3h-2.4v-0.8h2.5L435,205.3z M430.9,205.3h-2.5v-0.8h2.5V205.3z M426.7,205.3h-2.5v-0.8h2.5V205.3z M422.5,205.3H420v-0.8
		h2.5V205.3z M418.4,205.3h-2.5v-0.8h2.5V205.3z M414.2,205.3h-2.5v-0.8h2.5V205.3z M410.1,205.3h-2.4v-0.8h2.5L410.1,205.3z
		 M405.9,205.3h-2.4v-0.8h2.5L405.9,205.3z M401.7,205.3h-2.5v-0.8h2.5V205.3z M397.6,205.3h-2.5v-0.8h2.6L397.6,205.3z
		 M393.4,205.3h-2.5v-0.8h2.5V205.3z M389.3,205.3h-2.5v-0.8h2.5V205.3z M385.1,205.3h-2.4v-0.8h2.5L385.1,205.3z M380.9,205.3h-2.5
		v-0.8h2.5V205.3z M376.8,205.3h-2.5v-0.8h2.5V205.3z M372.6,205.3h-2.5v-0.8h2.5L372.6,205.3z M368.5,205.3H366v-0.8h2.5V205.3z
		 M364.3,205.3h-2.5v-0.8h2.5V205.3z M360.2,205.3h-2.5v-0.8h2.5V205.3z M356,205.3h-2.5v-0.8h2.5V205.3z M351.8,205.3h-2.5v-0.8
		h2.5V205.3z M347.7,205.3h-2.5v-0.8h2.5V205.3z M343.5,205.3H341v-0.8h2.6L343.5,205.3z M339.4,205.3H337v-0.8h2.5L339.4,205.3z
		 M335.2,205.3h-2.5v-0.8h2.5V205.3z M331,205.3h-2.4v-0.8h2.5L331,205.3z M326.9,205.3h-2.5v-0.8h2.5V205.3z M322.7,205.3h-2.5
		v-0.8h2.5V205.3z M318.6,205.3h-2.5v-0.8h2.6L318.6,205.3z M314.4,205.3h-2.5v-0.8h2.5V205.3z M310.2,205.3h-2.5v-0.8h2.5V205.3z
		 M306.1,205.3h-2.4v-0.8h2.5L306.1,205.3z M301.9,205.3h-2.5v-0.8h2.5V205.3z M297.8,205.3h-2.5v-0.8h2.5V205.3z M293.6,205.3h-2.5
		v-0.8h2.5V205.3z M289.4,205.3H287v-0.8h2.5V205.3z M285.3,205.3h-2.5v-0.8h2.5V205.3z M281.1,205.3h-2.5v-0.8h2.5V205.3z
		 M277,205.3h-2.3v-0.8h2.5L277,205.3z M272.8,205.3h-2.3v-0.8h2.5L272.8,205.3z M268.6,205.3h-2.5v-0.8h2.5V205.3z M264.5,205.3
		H262v-0.8h2.7L264.5,205.3z M260.3,205.3h-2.5v-0.8h2.5V205.3z M256.2,205.3h-2.5v-0.8h2.5V205.3z M252,205.3h-2.3v-0.8h2.5
		L252,205.3z M247.8,205.3h-2.5v-0.8h2.5V205.3z M243.7,205.3h-2.3v-0.8h2.5L243.7,205.3z M239.5,205.3H237v-0.8h2.6L239.5,205.3z
		 M235.4,205.3h-2.5v-0.8h2.5V205.3z M231.2,205.3h-2.5v-0.8h2.5V205.3z M227,205.3h-2.5v-0.8h2.5V205.3z M222.9,205.3h-2.5v-0.8
		h2.5V205.3z M218.7,205.3h-2.5v-0.8h2.5V205.3z M214.6,205.3h-2.5v-0.8h2.5V205.3z M210.4,205.3h-2.5v-0.8h2.5V205.3z M206.2,205.3
		h-2.5v-0.8h2.5V205.3z M202.1,205.3h-2.5v-0.8h2.5V205.3z M197.9,205.3h-2.3v-0.8h2.5L197.9,205.3z M193.8,205.3h-2.5v-0.8h2.5
		V205.3z M189.6,205.3h-2.5v-0.8h2.5V205.3z M185.4,205.3H183v-0.8h2.7L185.4,205.3z M181.3,205.3h-2.5v-0.8h2.5V205.3z
		 M177.1,205.3h-2.3v-0.8h2.5L177.1,205.3z M173,205.3h-2.3v-0.8h2.5L173,205.3z M168.8,205.3h-2.5v-0.8h2.5V205.3z M164.6,205.3
		h-2.5v-0.8h2.5V205.3z M160.5,205.3H158v-0.8h2.5V205.3z M156.3,205.3h-2.5v-0.8h2.5V205.3z M152.2,205.3h-2.5v-0.8h2.5V205.3z
		 M148,205.3h-2.2v-0.8h2.5L148,205.3z M143.8,205.3h-2.5v-0.8h2.5V205.3z"/>
	<rect x="507.4" y="204.5" class="st5" width="1.2" height="0.8"/>
	<rect x="94.7" y="367.7" class="st5" width="1.2" height="0.8"/>
	<path class="st5" d="M228.1,368.5h-2.5v-0.8h2.5L228.1,368.5z M224,368.5h-2.5v-0.8h2.5V368.5z M219.9,368.5h-2.5v-0.8h2.5V368.5z
		 M215.7,368.5h-2.5v-0.8h2.5V368.5z M211.6,368.5h-2.5v-0.8h2.5V368.5z M207.5,368.5H205v-0.8h2.5V368.5z M203.3,368.5h-2.5v-0.8
		h2.5V368.5z M199.2,368.5h-2.5v-0.8h2.5V368.5z M195.1,368.5h-2.5v-0.8h2.5V368.5z M191,368.5h-2.5v-0.8h2.5L191,368.5z
		 M186.8,368.5h-2.5v-0.8h2.5V368.5z M182.7,368.5h-2.5v-0.8h2.5L182.7,368.5z M178.6,368.5h-2.5v-0.8h2.5V368.5z M174.4,368.5H172
		v-0.8h2.5V368.5z M170.3,368.5h-2.5v-0.8h2.5V368.5z M166.2,368.5h-2.5v-0.8h2.5L166.2,368.5z M162,368.5h-2.5v-0.8h2.5V368.5z
		 M157.9,368.5h-2.5v-0.8h2.5V368.5z M153.8,368.5h-2.5v-0.8h2.5V368.5z M149.7,368.5h-2.5v-0.8h2.5L149.7,368.5z M145.5,368.5H143
		v-0.8h2.5V368.5z M141.4,368.5h-2.5v-0.8h2.5V368.5z M137.3,368.5h-2.5v-0.8h2.5L137.3,368.5z M133.1,368.5h-2.5v-0.8h2.5
		L133.1,368.5z M129,368.5h-2.5v-0.8h2.5V368.5z M124.9,368.5h-2.5v-0.8h2.5V368.5z M120.7,368.5h-2.5v-0.8h2.5V368.5z M116.6,368.5
		h-2.5v-0.8h2.5V368.5z M112.5,368.5H110v-0.8h2.5V368.5z M108.4,368.5h-2.5v-0.8h2.5V368.5z M104.2,368.5h-2.5v-0.8h2.5V368.5z
		 M100.1,368.5h-2.5v-0.8h2.5L100.1,368.5z"/>
	<rect x="229.8" y="367.7" class="st5" width="1.2" height="0.8"/>
	<rect x="423.8" y="367.7" class="st5" width="1.2" height="0.8"/>
	<path class="st5" d="M557.2,368.5h-2.5v-0.8h2.5L557.2,368.5z M553.1,368.5h-2.5v-0.8h2.5L553.1,368.5z M549,368.5h-2.5v-0.8h2.5
		V368.5z M544.9,368.5h-2.5v-0.8h2.5L544.9,368.5z M540.7,368.5h-2.5v-0.8h2.4L540.7,368.5z M536.6,368.5h-2.5v-0.8h2.5V368.5z
		 M532.5,368.5H530v-0.8h2.5V368.5z M528.3,368.5h-2.5v-0.8h2.5V368.5z M524.2,368.5h-2.5v-0.8h2.5L524.2,368.5z M520.1,368.5h-2.5
		v-0.8h2.5V368.5z M515.9,368.5h-2.5v-0.8h2.5V368.5z M511.8,368.5h-2.5v-0.8h2.5V368.5z M507.7,368.5h-2.5v-0.8h2.5L507.7,368.5z
		 M503.6,368.5h-2.5v-0.8h2.5V368.5z M499.4,368.5h-2.5v-0.8h2.5V368.5z M495.3,368.5h-2.5v-0.8h2.5V368.5z M491.2,368.5h-2.5v-0.8
		h2.5L491.2,368.5z M487,368.5h-2.5v-0.8h2.5V368.5z M482.9,368.5h-2.5v-0.8h2.5V368.5z M478.8,368.5h-2.5v-0.8h2.5L478.8,368.5z
		 M474.6,368.5h-2.5v-0.8h2.5V368.5z M470.5,368.5H468v-0.8h2.5V368.5z M466.4,368.5h-2.5v-0.8h2.5V368.5z M462.3,368.5h-2.5v-0.8
		h2.5V368.5z M458.1,368.5h-2.5v-0.8h2.5V368.5z M454,368.5h-2.5v-0.8h2.5V368.5z M449.9,368.5h-2.5v-0.8h2.5V368.5z M445.7,368.5
		h-2.5v-0.8h2.4L445.7,368.5z M441.6,368.5h-2.5v-0.8h2.5V368.5z M437.5,368.5H435v-0.8h2.5V368.5z M433.3,368.5h-2.5v-0.8h2.5
		V368.5z M429.2,368.5h-2.5v-0.8h2.5L429.2,368.5z"/>
	<rect x="558.9" y="367.7" class="st5" width="1.2" height="0.8"/>
	
		<linearGradient id="SVGID_3_" gradientUnits="userSpaceOnUse" x1="471" y1="339.325" x2="589.07" y2="339.325" gradientTransform="matrix(1 0 0 -1 -0.33 457.17)">
		<stop  offset="0" style="stop-color:#C7B9B8"/>
		<stop  offset="0.16" style="stop-color:#C1B4B3"/>
		<stop  offset="0.37" style="stop-color:#B1A4A5"/>
		<stop  offset="0.6" style="stop-color:#958B8D"/>
		<stop  offset="0.86" style="stop-color:#6F686C"/>
		<stop  offset="1" style="stop-color:#575257"/>
	</linearGradient>
	<path class="st6" d="M559.5,143.5c-15.2-4.1-30.4-7.9-45.7-11.2l8.8-40.2c16,3.5,31.9,7.4,47.8,11.7c-7.2,5.1-14.4,10.3-21.4,15.6
		C552.6,127.5,556.1,135.5,559.5,143.5z"/>
	<path class="st7" d="M513.8,132.3c-2.9-5.9-5.9-11.7-8.9-17.6c4.9,1,9.7,2,14.6,3.1C517.5,122.7,515.6,127.5,513.8,132.3z"/>
	
		<linearGradient id="SVGID_4_" gradientUnits="userSpaceOnUse" x1="77.33" y1="339.325" x2="133.9" y2="339.325" gradientTransform="matrix(1 0 0 -1 -0.33 457.17)">
		<stop  offset="0" style="stop-color:#C7B9B8"/>
		<stop  offset="0.16" style="stop-color:#C1B4B3"/>
		<stop  offset="0.37" style="stop-color:#B1A4A5"/>
		<stop  offset="0.6" style="stop-color:#958B8D"/>
		<stop  offset="0.86" style="stop-color:#6F686C"/>
		<stop  offset="1" style="stop-color:#575257"/>
	</linearGradient>
	<path class="st8" d="M87.8,143.5c15.2-4.1,30.4-7.9,45.7-11.2l-8.8-40.2c-16,3.5-31.9,7.4-47.8,11.7c7.2,5.1,14.3,10.3,21.4,15.6
		C94.7,127.5,91.2,135.5,87.8,143.5z"/>
	<path class="st7" d="M133.6,132.3c2.9-5.9,5.9-11.7,8.9-17.6c-4.9,1-9.7,2-14.6,3.1C129.8,122.7,131.7,127.5,133.6,132.3z"/>
	
		<linearGradient id="SVGID_5_" gradientUnits="userSpaceOnUse" x1="1873.1" y1="370.533" x2="2282.54" y2="370.533" gradientTransform="matrix(-1 0 0 -1 2401.3499 457.17)">
		<stop  offset="0" style="stop-color:#C7B9B8"/>
		<stop  offset="0.16" style="stop-color:#C1B4B3"/>
		<stop  offset="0.37" style="stop-color:#B1A4A5"/>
		<stop  offset="0.6" style="stop-color:#958B8D"/>
		<stop  offset="0.86" style="stop-color:#6F686C"/>
		<stop  offset="1" style="stop-color:#575257"/>
	</linearGradient>
	<path class="st9" d="M127.7,117.9c129-28.5,262.7-28.5,391.7,0l8.9-40.2C393.4,48,253.7,48,118.8,77.7L127.7,117.9z"/>
	<polygon class="st10" points="222.1,236.7 211.1,239.5 200.1,236.7 211.1,233.8 	"/>
	<text transform="matrix(0.9833 -0.1821 0.1821 0.9833 163.86 96.39)" class="st1 st11 st12">C</text>
	<text transform="matrix(0.9863 -0.1647 0.1647 0.9863 175.82 94.18)" class="st1 st11 st12">E</text>
	<text transform="matrix(0.9889 -0.1485 0.1485 0.9889 186.24 92.44)" class="st1 st11 st12">R</text>
	<text transform="matrix(0.9909 -0.1349 0.1349 0.9909 196.75 90.85)" class="st1 st11 st12">T</text>
	<text transform="matrix(0.9927 -0.1203 0.1203 0.9927 208.4695 89.2702)" class="st1 st11 st13">I</text>
	<text transform="matrix(0.9939 -0.1104 0.1104 0.9939 214.4101 88.5201)" class="st1 st11 st14">F</text>
	<text transform="matrix(0.9945 -0.1044 0.1044 0.9945 223.73 87.46)" class="st1 st11 st12">I</text>
	<text transform="matrix(0.9956 -9.358703e-02 9.358703e-02 0.9956 229.67 86.82)" class="st1 st11 st12">C</text>
	<text transform="matrix(0.9968 -7.967700e-02 7.967700e-02 0.9968 241.81 85.68)" class="st1 st11 st12">A</text>
	<text transform="matrix(0.9977 -6.766703e-02 6.766703e-02 0.9977 251.99 84.86)" class="st1 st11 st12">T</text>
	<text transform="matrix(0.9988 -4.815246e-02 4.815246e-02 0.9988 268.69 83.77)" class="st1 st11 st12">D</text>
	<text transform="matrix(0.9992 -3.996804e-02 3.996804e-02 0.9992 281.5594 83.1601)" class="st1 st11 st15">E</text>
	<text transform="matrix(0.9998 -1.919744e-02 1.919744e-02 0.9998 296.38 82.68)" class="st1 st11 st12">P</text>
	<text transform="matrix(1 -7.155789e-03 7.155789e-03 1 305.92 82.49)" class="st1 st11 st12">R</text>
	<text transform="matrix(1 5.585025e-03 -5.585025e-03 1 316.84 82.39)" class="st1 st11 st12">O</text>
	<text transform="matrix(0.9998 1.832493e-02 -1.832493e-02 0.9998 330.82 82.48)" class="st1 st11 st12">F</text>
	<text transform="matrix(0.9996 2.896841e-02 -2.896841e-02 0.9996 340.15 82.65)" class="st1 st11 st12">E</text>
	<text transform="matrix(0.9992 3.996804e-02 -3.996804e-02 0.9992 350.7496 82.9598)" class="st1 st11 st15">S</text>
	<text transform="matrix(0.9988 4.954705e-02 -4.954705e-02 0.9988 359.93 83.33)" class="st1 st11 st12">S</text>
	<text transform="matrix(0.9983 5.773827e-02 -5.773827e-02 0.9983 369.11 83.79)" class="st1 st11 st12">I</text>
	<text transform="matrix(0.9977 6.836355e-02 -6.836355e-02 0.9977 375.09 84.11)" class="st1 st11 st12">O</text>
	<text transform="matrix(0.9968 7.974522e-02 -7.974522e-02 0.9968 388.9998 85.0704)" class="st1 st11 st16">N</text>
	<text transform="matrix(0.9955 9.515081e-02 -9.515081e-02 0.9955 401.2001 86.08)" class="st1 st11 st12">A</text>
	<text transform="matrix(0.9943 0.1068 -0.1068 0.9943 412.63 87.18)" class="st1 st11 st12">L</text>
	<text transform="matrix(0.9933 0.1155 -0.1155 0.9933 422.7999 88.28)" class="st1 st11 st12">I</text>
	<text transform="matrix(0.9927 0.1203 -0.1203 0.9927 428.7496 88.9702)" class="st1 st11 st13">S</text>
	<text transform="matrix(0.9915 0.1302 -0.1302 0.9915 437.8694 90.0901)" class="st1 st11 st17">A</text>
	<text transform="matrix(0.9887 0.1498 -0.1498 0.9887 448.0004 91.4597)" class="st1 st11 st18">T</text>
	<text transform="matrix(0.9879 0.1551 -0.1551 0.9879 459.6899 93.2)" class="st1 st11 st12">I</text>
	<text transform="matrix(0.9862 0.1656 -0.1656 0.9862 465.6099 94.1)" class="st1 st11 st12">O</text>
	<text transform="matrix(0.9835 0.1807 -0.1807 0.9835 479.369 96.4203)" class="st1 st11 st19">N</text>
	<text transform="matrix(1.61 0 0 1 168.4902 194.99)" class="st20 st21">P</text>
	<text transform="matrix(1.61 0 0 1 198.4043 194.99)" class="st20 st21">r</text>
	<text transform="matrix(1.61 0 0 1 216.7744 194.99)" class="st20 st21">énom Nom</text>
	<text transform="matrix(1 0 0 1 248.25 242.64)" class="st10 st11 st22">N</text>
	<text transform="matrix(1 0 0 1 263.25 242.64)" class="st10 st11 st22 st23">O</text>
	<text transform="matrix(1 0 0 1 278.04 242.64)" class="st10 st11 st22">VEMBRE 2018</text>
	<text transform="matrix(1 0 0 1 241.26 264.16)" class="st24 st25 st26">Pour votre participation au programme</text>
	<text transform="matrix(1 0 0 1 221.82 276.16)" class="st24 st25 st26">DigiStart-Salesforce qui vous a permis de créer </text>
	<text transform="matrix(1 0 0 1 210.67 288.16)" class="st24 st25 st26">votre</text>
	<text transform="matrix(1 0 0 1 232.9 288.16)" class="st24 st25 st26"> </text>
	<text transform="matrix(1 0 0 1 235.41 288.16)" class="st24 st25 st26">site</text>
	<text transform="matrix(1 0 0 1 250.97 288.16)" class="st24 st25 st26"> </text>
	<text transform="matrix(1 0 0 1 253.47 288.16)" class="st24 st25 st26">e-commerce</text>
	<text transform="matrix(1 0 0 1 310.15 288.16)" class="st24 st25 st26"> </text>
	<text transform="matrix(1 0 0 1 312.66 288.16)" class="st24 st25 st26">avec</text>
	<text transform="matrix(1 0 0 1 334.34 288.16)" class="st24 st25 st26"> </text>
	<text transform="matrix(1 0 0 1 336.84 288.16)" class="st24 st25 st26">la</text>
	<text transform="matrix(1 0 0 1 344.62 288.16)" class="st24 st25 st26"> </text>
	<text transform="matrix(1 0 0 1 347.13 288.16)" class="st24 st25 st26">plateforme</text>
	<text transform="matrix(1 0 0 1 394.92 288.16)" class="st24 st25 st26"> </text>
	<text transform="matrix(1 0 0 1 397.43 288.16)" class="st24 st25 st26">Salesforce </text>
	<text transform="matrix(1 0 0 1 210.67 300.16)" class="st24 st25 st26">et</text>
	<text transform="matrix(1 0 0 1 219.01 300.16)" class="st24 st25 st26"> </text>
	<text transform="matrix(1 0 0 1 221.34 300.16)" class="st24 st25 st26">votre</text>
	<text transform="matrix(1 0 0 1 243.57 300.16)" class="st24 st25 st26"> </text>
	<text transform="matrix(1 0 0 1 245.91 300.16)" class="st24 st25 st26">landing</text>
	<text transform="matrix(1 0 0 1 279.24 300.16)" class="st24 st25 st26"> </text>
	<text transform="matrix(1 0 0 1 281.58 300.16)" class="st24 st25 st26">pag</text>
	<text transform="matrix(1 0 0 1 299.36 300.16)" class="st24 st25 st26">e</text>
	<text transform="matrix(1 0 0 1 305.52 300.16)" class="st24 st25 st26"> </text>
	<text transform="matrix(1 0 0 1 307.85 300.16)" class="st24 st25 st26">codé</text>
	<text transform="matrix(1 0 0 1 330.64 300.16)" class="st24 st25 st26"> </text>
	<text transform="matrix(1 0 0 1 332.97 300.16)" class="st24 st25 st26">par</text>
	<text transform="matrix(1 0 0 1 347.97 300.16)" class="st24 st25 st26"> </text>
	<text transform="matrix(1 0 0 1 350.31 300.16)" class="st24 st25 st26">vos</text>
	<text transform="matrix(1 0 0 1 365.87 300.16)" class="st24 st25 st26"> </text>
	<text transform="matrix(1 0 0 1 368.2 300.16)" class="st24 st25 st26">soins</text>
	<text transform="matrix(1 0 0 1 391.54 300.16)" class="st24 st25 st26"> </text>
	<text transform="matrix(1 0 0 1 393.87 300.16)" class="st24 st25 st26">en</text>
	<text transform="matrix(1 0 0 1 404.99 300.16)" class="st24 st25 st26"> </text>
	<text transform="matrix(1 0 0 1 407.32 300.16)" class="st24 st25 st26">HTML</text>
	<text transform="matrix(1 0 0 1 433.99 300.16)" class="st24 st25 st26"> </text>
	<text transform="matrix(1 0 0 1 436.33 300.16)" class="st24 st25 st26">et </text>
	<text transform="matrix(1 0 0 1 317.95 312.16)" class="st24 st25 st26">CSS</text>
	<text transform="matrix(1 0 0 1 132.38 384.97)" class="st27 st25 st26">Binta Jammeh</text>
	<text transform="matrix(1 0 0 1 102.94 396.97)" class="st27 st25 st26">Directrice des programmes</text>
	<text transform="matrix(1 0 0 1 435.33 384.97)" class="st27 st25 st26">Francisco Abarca Del Rio</text>
	<text transform="matrix(1 0 0 1 435.33 396.97)" class="st27 st25 st26">Solution Engineer Director</text>
	<text transform="matrix(1 0 0 1 171.07 145.23)" class="st10 st11 st22">CE CE</text>
	<text transform="matrix(1 0 0 1 229.82 145.23)" class="st10 st11 st22 st28">R</text>
	<text transform="matrix(1 0 0 1 242.36 145.23)" class="st10 st11 st22">TIFIC</text>
	<text transform="matrix(1 0 0 1 295.89 145.23)" class="st10 st11 st22 st23">A</text>
	<text transform="matrix(1 0 0 1 307.95 145.23)" class="st10 st11 st22">T EST DELIVRE A</text>
	<polygon class="st10" points="455.6,236.7 444.6,239.5 433.7,236.7 444.6,233.8 	"/>
</g>
<image style="overflow:visible;enable-background:new    ;" width="1200" height="839" xlink:href="salesforce_logo.png"  transform="matrix(6.000000e-02 0 0 6.000000e-02 460.65 285.99)">
</image>
<text transform="matrix(1 0 0 1 583 454.73)" class="st29 st25 st30">© Freepik.com</text>
<image style="overflow:visible;enable-background:new    ;" width="842" height="595" xlink:href="logo-konexio-final.png"  transform="matrix(0.12 0 0 0.12 104.67 273.97)">
</image>
</svg>
