<svg id="Objects" xmlns="http://www.w3.org/2000/svg" xmlns:xlink="http://www.w3.org/1999/xlink" viewBox="0 0 656.33 457.57">
    <defs>
        <style>
            .cls-1{fill:url(#linear-gradient);}.cls-12,.cls-2{fill:#fff;}.cls-3{opacity:0.4;}.cls-4{fill:#f2f2f2;}.cls-5{fill:url(#linear-gradient-2);}.cls-6{fill:#5d6770;}.cls-7{fill:url(#linear-gradient-3);}.cls-8{fill:#333;}.cls-9{fill:url(#linear-gradient-4);}.cls-10{fill:url(#linear-gradient-5);}.cls-11,.cls-16{fill:#575257;}.cls-12{font-size:17px;}.cls-12,.cls-16{font-family:Baskerville, Baskerville;}.cls-13{font-size:36px;font-family:MonotypeCorsiva, MonotypeCorsiva;}.cls-14{letter-spacing:-0.02em;}.cls-15{letter-spacing:-0.01em;}.cls-16{font-size:20px;}.cls-17{letter-spacing:-0.08em;}.cls-18,.cls-26{font-size:10px;}.cls-18{fill:#4d4d4d;}.cls-18,.cls-26,.cls-29{font-family:Helvetica-Light, Helvetica;}.cls-19{letter-spacing:-0.03em;}.cls-20{letter-spacing:-0.03em;}.cls-21{letter-spacing:-0.03em;}.cls-22{letter-spacing:-0.04em;}.cls-23{letter-spacing:0.06em;}.cls-24{letter-spacing:-0.04em;}.cls-25{letter-spacing:-0.04em;}.cls-26{fill:#666;}.cls-27{letter-spacing:-0.1em;}.cls-28{letter-spacing:-0.07em;}.cls-29{font-size:8px;fill:#999;}
        </style>
        <linearGradient id="linear-gradient" x1="321.14" y1="-97.03" x2="325.64" y2="483.45" gradientUnits="userSpaceOnUse">
            <stop offset="0" stop-color="#c7b9b8"/>
            <stop offset="0.16" stop-color="#c1b4b3"/>
            <stop offset="0.37" stop-color="#b1a4a5"/>
            <stop offset="0.6" stop-color="#958b8d"/>
            <stop offset="0.86" stop-color="#6f686c"/>
            <stop offset="1" stop-color="#575257"/>
        </linearGradient>
        <linearGradient id="linear-gradient-2" x1="321.47" y1="-97" x2="325.97" y2="483.47" xlink:href="#linear-gradient"/>
        <linearGradient id="linear-gradient-3" x1="471" y1="117.87" x2="589.07" y2="117.87" xlink:href="#linear-gradient"/>
        <linearGradient id="linear-gradient-4" x1="77.33" y1="117.87" x2="133.9" y2="117.87" xlink:href="#linear-gradient"/>
        <linearGradient id="linear-gradient-5" x1="1643.05" y1="86.65" x2="2052.49" y2="86.65" gradientTransform="matrix(-1, 0, 0, 1, 2171.68, 0)" xlink:href="#linear-gradient"/>
    </defs>
    <title>diploma2</title>
    <g id="Design">
        <rect class="cls-1" width="647.33" height="457.55"/>
        <rect class="cls-2" x="12.2" y="12.2" width="622.93" height="433.14"/>
        <g class="cls-3">
            <polygon class="cls-4" points="471.41 446.15 478.17 446.15 480.05 445.1 481.93 446.15 488.69 446.15 480.05 441.33 471.41 446.15"/>
            <polygon class="cls-4" points="393.05 446.15 399.81 446.15 401.69 445.1 403.57 446.15 410.33 446.15 401.69 441.33 393.05 446.15"/>
            <polygon class="cls-4" points="634.67 446.15 634.67 442.51 628.14 446.15 634.67 446.15"/>
            <polygon class="cls-4" points="549.77 446.15 556.53 446.15 558.41 445.1 560.29 446.15 567.05 446.15 558.41 441.33 549.77 446.15"/>
            <polygon class="cls-4" points="157.99 446.15 164.75 446.15 166.63 445.1 168.51 446.15 175.27 446.15 166.63 441.33 157.99 446.15"/>
            <polygon class="cls-4" points="314.7 446.15 321.46 446.15 323.34 445.1 325.22 446.15 331.98 446.15 323.34 441.33 314.7 446.15"/>
            <polygon class="cls-4" points="79.64 446.15 86.4 446.15 88.28 445.1 90.16 446.15 96.92 446.15 88.28 441.33 79.64 446.15"/>
            <polygon class="cls-4" points="12.04 446.15 18.57 446.15 12.04 442.51 12.04 446.15"/>
            <polygon class="cls-4" points="236.34 446.15 243.1 446.15 244.99 445.1 246.87 446.15 253.63 446.15 244.99 441.33 236.34 446.15"/>
            <polygon class="cls-4" points="532.14 446.15 538.9 446.15 558.41 435.26 577.92 446.15 584.69 446.15 558.41 431.49 532.14 446.15"/>
            <polygon class="cls-4" points="453.78 446.15 460.54 446.15 480.05 435.26 499.56 446.15 506.32 446.15 480.05 431.49 453.78 446.15"/>
            <polygon class="cls-4" points="140.36 446.15 147.12 446.15 166.63 435.26 186.14 446.15 192.9 446.15 166.63 431.49 140.36 446.15"/>
            <polygon class="cls-4" points="218.71 446.15 225.47 446.15 244.99 435.26 264.5 446.15 271.26 446.15 244.99 431.49 218.71 446.15"/>
            <polygon class="cls-4" points="617.27 446.15 634.67 436.44 634.67 432.67 610.5 446.15 617.27 446.15"/>
            <polygon class="cls-4" points="12.04 436.44 29.44 446.15 36.2 446.15 12.04 432.67 12.04 436.44"/>
            <polygon class="cls-4" points="297.07 446.15 303.83 446.15 323.34 435.26 342.85 446.15 349.61 446.15 323.34 431.49 297.07 446.15"/>
            <polygon class="cls-4" points="62.01 446.15 68.77 446.15 88.28 435.26 107.79 446.15 114.55 446.15 88.28 431.49 62.01 446.15"/>
            <polygon class="cls-4" points="375.42 446.15 382.18 446.15 401.69 435.26 421.2 446.15 427.96 446.15 401.69 431.49 375.42 446.15"/>
            <polygon class="cls-4" points="558.41 421.65 519.23 443.52 480.05 421.65 440.87 443.52 401.69 421.65 362.52 443.52 323.34 421.65 284.16 443.52 244.99 421.65 205.81 443.52 166.63 421.65 127.46 443.52 88.28 421.65 49.11 443.52 12.04 422.83 12.04 426.6 47.07 446.15 51.14 446.15 88.28 425.42 125.42 446.15 129.5 446.15 166.63 425.42 203.77 446.15 207.84 446.15 244.99 425.42 282.13 446.15 286.2 446.15 323.34 425.42 360.48 446.15 364.55 446.15 401.69 425.42 438.83 446.15 442.9 446.15 480.05 425.42 517.19 446.15 521.27 446.15 558.41 425.42 595.56 446.15 599.63 446.15 634.67 426.6 634.67 422.83 597.6 443.52 558.41 421.65"/>
            <polygon class="cls-4" points="558.41 411.8 519.23 433.68 480.05 411.8 440.87 433.68 401.69 411.8 362.52 433.68 323.34 411.8 284.16 433.68 244.99 411.8 205.81 433.68 166.63 411.8 127.46 433.68 88.28 411.8 49.11 433.68 12.04 412.99 12.04 416.76 49.11 437.45 88.28 415.58 127.46 437.45 166.63 415.58 205.81 437.45 244.99 415.58 284.16 437.45 323.34 415.58 362.52 437.45 401.69 415.58 440.87 437.45 480.05 415.58 519.23 437.45 558.41 415.58 597.6 437.45 634.67 416.76 634.67 412.99 597.6 433.68 558.41 411.8"/>
            <polygon class="cls-4" points="558.41 401.96 519.23 423.83 480.05 401.96 440.87 423.83 401.69 401.96 362.52 423.83 323.34 401.96 284.16 423.83 244.99 401.96 205.81 423.83 166.63 401.96 127.46 423.83 88.28 401.96 49.11 423.83 12.04 403.14 12.04 406.92 49.11 427.61 88.28 405.74 127.46 427.61 166.63 405.74 205.81 427.61 244.99 405.74 284.16 427.61 323.34 405.74 362.52 427.61 401.69 405.74 440.87 427.61 480.05 405.74 519.23 427.61 558.41 405.74 597.6 427.61 634.67 406.92 634.67 403.14 597.6 423.83 558.41 401.96"/>
            <polygon class="cls-4" points="558.41 392.12 519.23 413.99 480.05 392.12 440.87 413.99 401.69 392.12 362.52 413.99 323.34 392.12 284.16 413.99 244.99 392.12 205.81 413.99 166.63 392.12 127.46 413.99 88.28 392.12 49.11 413.99 12.04 393.3 12.04 397.07 49.11 417.76 88.28 395.89 127.46 417.76 166.63 395.89 205.81 417.76 244.99 395.89 284.16 417.76 323.34 395.89 362.52 417.76 401.69 395.89 440.87 417.76 480.05 395.89 519.23 417.76 558.41 395.89 597.6 417.76 634.67 397.08 634.67 393.3 597.6 413.99 558.41 392.12"/>
            <polygon class="cls-4" points="558.41 382.28 519.23 404.15 480.05 382.28 440.87 404.15 401.69 382.28 362.52 404.15 323.34 382.28 284.16 404.15 244.99 382.28 205.81 404.15 166.63 382.28 127.46 404.15 88.28 382.28 49.11 404.15 12.04 383.46 12.04 387.23 49.11 407.92 88.28 386.05 127.46 407.92 166.63 386.05 205.81 407.92 244.99 386.05 284.16 407.92 323.34 386.05 362.52 407.92 401.69 386.05 440.87 407.92 480.05 386.05 519.23 407.92 558.41 386.05 597.6 407.92 634.67 387.23 634.67 383.46 597.6 404.15 558.41 382.28"/>
            <polygon class="cls-4" points="558.41 372.44 519.23 394.31 480.05 372.44 440.87 394.31 401.69 372.44 362.52 394.31 323.34 372.44 284.16 394.31 244.99 372.44 205.81 394.31 166.63 372.44 127.46 394.31 88.28 372.44 49.11 394.31 12.04 373.62 12.04 377.39 49.11 398.08 88.28 376.21 127.46 398.08 166.63 376.21 205.81 398.08 244.99 376.21 284.16 398.08 323.34 376.21 362.52 398.08 401.69 376.21 440.87 398.08 480.05 376.21 519.23 398.08 558.41 376.21 597.6 398.08 634.67 377.39 634.67 373.62 597.6 394.31 558.41 372.44"/>
            <polygon class="cls-4" points="558.41 362.6 519.23 384.47 480.05 362.6 440.87 384.47 401.69 362.6 362.52 384.47 323.34 362.6 284.16 384.47 244.99 362.6 205.81 384.47 166.63 362.6 127.46 384.47 88.28 362.6 49.11 384.47 12.04 363.78 12.04 367.55 49.11 388.24 88.28 366.37 127.46 388.24 166.63 366.37 205.81 388.24 244.99 366.37 284.16 388.24 323.34 366.37 362.52 388.24 401.69 366.37 440.87 388.24 480.05 366.37 519.23 388.24 558.41 366.37 597.6 388.24 634.67 367.55 634.67 363.78 597.6 384.47 558.41 362.6"/>
            <polygon class="cls-4" points="558.41 352.75 519.23 374.62 480.05 352.75 440.87 374.62 401.69 352.75 362.52 374.62 323.34 352.75 284.16 374.62 244.99 352.75 205.81 374.62 166.63 352.75 127.46 374.62 88.28 352.75 49.11 374.62 12.04 353.93 12.04 357.71 49.11 378.4 88.28 356.53 127.46 378.4 166.63 356.53 205.81 378.4 244.99 356.53 284.16 378.4 323.34 356.53 362.52 378.4 401.69 356.53 440.87 378.4 480.05 356.53 519.23 378.4 558.41 356.53 597.6 378.4 634.67 357.71 634.67 353.93 597.6 374.62 558.41 352.75"/>
            <polygon class="cls-4" points="558.41 342.91 519.23 364.78 480.05 342.91 440.87 364.78 401.69 342.91 362.52 364.78 323.34 342.91 284.16 364.78 244.99 342.91 205.81 364.78 166.63 342.91 127.46 364.78 88.28 342.91 49.11 364.78 12.04 344.09 12.04 347.87 49.11 368.56 88.28 346.69 127.46 368.56 166.63 346.69 205.81 368.56 244.99 346.69 284.16 368.56 323.34 346.69 362.52 368.56 401.69 346.69 440.87 368.56 480.05 346.69 519.23 368.56 558.41 346.69 597.6 368.56 634.67 347.87 634.67 344.09 597.6 364.78 558.41 342.91"/>
            <polygon class="cls-4" points="558.41 333.07 519.23 354.94 480.05 333.07 440.87 354.94 401.69 333.07 362.52 354.94 323.34 333.07 284.16 354.94 244.99 333.07 205.81 354.94 166.63 333.07 127.46 354.94 88.28 333.07 49.11 354.94 12.04 334.25 12.04 338.02 49.11 358.71 88.28 336.85 127.46 358.71 166.63 336.85 205.81 358.71 244.99 336.85 284.16 358.71 323.34 336.85 362.52 358.71 401.69 336.85 440.87 358.71 480.05 336.85 519.23 358.71 558.41 336.85 597.6 358.71 634.67 338.03 634.67 334.25 597.6 354.94 558.41 333.07"/>
            <polygon class="cls-4" points="558.41 323.23 519.23 345.1 480.05 323.23 440.87 345.1 401.69 323.23 362.52 345.1 323.34 323.23 284.16 345.1 244.99 323.23 205.81 345.1 166.63 323.23 127.46 345.1 88.28 323.23 49.11 345.1 12.04 324.41 12.04 328.18 49.11 348.87 88.28 327 127.46 348.87 166.63 327 205.81 348.87 244.99 327 284.16 348.87 323.34 327 362.52 348.87 401.69 327 440.87 348.87 480.05 327 519.23 348.87 558.41 327 597.6 348.87 634.67 328.18 634.67 324.41 597.6 345.1 558.41 323.23"/>
            <text x="-0.33" y="-0.03"></text>
            <polygon class="cls-4" points="558.41 303.55 519.23 325.42 480.05 303.55 440.87 325.42 401.69 303.55 362.52 325.42 323.34 303.55 284.16 325.42 244.99 303.55 205.81 325.42 166.63 303.55 127.46 325.42 88.28 303.55 49.11 325.42 12.04 304.73 12.04 308.5 49.11 329.19 88.28 307.32 127.46 329.19 166.63 307.32 205.81 329.19 244.99 307.32 284.16 329.19 323.34 307.32 362.52 329.19 401.69 307.32 440.87 329.19 480.05 307.32 519.23 329.19 558.41 307.32 597.6 329.19 634.67 308.5 634.67 304.73 597.6 325.42 558.41 303.55"/>
            <polygon class="cls-4" points="558.41 293.7 519.23 315.57 480.05 293.7 440.87 315.57 401.69 293.7 362.52 315.57 323.34 293.7 284.16 315.57 244.99 293.7 205.81 315.57 166.63 293.7 127.46 315.57 88.28 293.7 49.11 315.57 12.04 294.88 12.04 298.66 49.11 319.35 88.28 297.48 127.46 319.35 166.63 297.48 205.81 319.35 244.99 297.48 284.16 319.35 323.34 297.48 362.52 319.35 401.69 297.48 440.87 319.35 480.05 297.48 519.23 319.35 558.41 297.48 597.6 319.35 634.67 298.66 634.67 294.88 597.6 315.57 558.41 293.7"/>
            <polygon class="cls-4" points="558.41 283.86 519.23 305.73 480.05 283.86 440.87 305.73 401.69 283.86 362.52 305.73 323.34 283.86 284.16 305.73 244.99 283.86 205.81 305.73 166.63 283.86 127.46 305.73 88.28 283.86 49.11 305.73 12.04 285.04 12.04 288.81 49.11 309.51 88.28 287.64 127.46 309.51 166.63 287.64 205.81 309.51 244.99 287.64 284.16 309.51 323.34 287.64 362.52 309.51 401.69 287.64 440.87 309.51 480.05 287.64 519.23 309.51 558.41 287.64 597.6 309.51 634.67 288.82 634.67 285.04 597.6 305.73 558.41 283.86"/>
            <polygon class="cls-4" points="558.41 274.02 519.23 295.89 480.05 274.02 440.87 295.89 401.69 274.02 362.52 295.89 323.34 274.02 284.16 295.89 244.99 274.02 205.81 295.89 166.63 274.02 127.46 295.89 88.28 274.02 49.11 295.89 12.04 275.2 12.04 278.97 49.11 299.67 88.28 277.79 127.46 299.67 166.63 277.79 205.81 299.67 244.99 277.79 284.16 299.67 323.34 277.79 362.52 299.67 401.69 277.79 440.87 299.67 480.05 277.79 519.23 299.67 558.41 277.79 597.6 299.67 634.67 278.98 634.67 275.2 597.6 295.89 558.41 274.02"/>
            <polygon class="cls-4" points="558.41 264.18 519.23 286.05 480.05 264.18 440.87 286.05 401.69 264.18 362.52 286.05 323.34 264.18 284.16 286.05 244.99 264.18 205.81 286.05 166.63 264.18 127.46 286.05 88.28 264.18 49.11 286.05 12.04 265.36 12.04 269.13 49.11 289.82 88.28 267.95 127.46 289.82 166.63 267.95 205.81 289.82 244.99 267.95 284.16 289.82 323.34 267.95 362.52 289.82 401.69 267.95 440.87 289.82 480.05 267.95 519.23 289.82 558.41 267.95 597.6 289.82 634.67 269.13 634.67 265.36 597.6 286.05 558.41 264.18"/>
            <polygon class="cls-4" points="558.41 254.34 519.23 276.21 480.05 254.34 440.87 276.21 401.69 254.34 362.52 276.21 323.34 254.34 284.16 276.21 244.99 254.34 205.81 276.21 166.63 254.34 127.46 276.21 88.28 254.34 49.11 276.21 12.04 255.52 12.04 259.29 49.11 279.98 88.28 258.11 127.46 279.98 166.63 258.11 205.81 279.98 244.99 258.11 284.16 279.98 323.34 258.11 362.52 279.98 401.69 258.11 440.87 279.98 480.05 258.11 519.23 279.98 558.41 258.11 597.6 279.98 634.67 259.29 634.67 255.52 597.6 276.21 558.41 254.34"/>
            <polygon class="cls-4" points="558.41 244.5 519.23 266.37 480.05 244.5 440.87 266.37 401.69 244.5 362.52 266.37 323.34 244.5 284.16 266.37 244.99 244.5 205.81 266.37 166.63 244.5 127.46 266.37 88.28 244.5 49.11 266.37 12.04 245.68 12.04 249.45 49.11 270.14 88.28 248.27 127.46 270.14 166.63 248.27 205.81 270.14 244.99 248.27 284.16 270.14 323.34 248.27 362.52 270.14 401.69 248.27 440.87 270.14 480.05 248.27 519.23 270.14 558.41 248.27 597.6 270.14 634.67 249.45 634.67 245.68 597.6 266.37 558.41 244.5"/>
            <polygon class="cls-4" points="558.41 234.65 519.23 256.52 480.05 234.65 440.87 256.52 401.69 234.65 362.52 256.52 323.34 234.65 284.16 256.52 244.99 234.65 205.81 256.52 166.63 234.65 127.46 256.52 88.28 234.65 49.11 256.52 12.04 235.83 12.04 239.61 49.11 260.3 88.28 238.43 127.46 260.3 166.63 238.43 205.81 260.3 244.99 238.43 284.16 260.3 323.34 238.43 362.52 260.3 401.69 238.43 440.87 260.3 480.05 238.43 519.23 260.3 558.41 238.43 597.6 260.3 634.67 239.61 634.67 235.83 597.6 256.52 558.41 234.65"/>
            <polygon class="cls-4" points="558.41 224.81 519.23 246.68 480.05 224.81 440.87 246.68 401.69 224.81 362.52 246.68 323.34 224.81 284.16 246.68 244.99 224.81 205.81 246.68 166.63 224.81 127.46 246.68 88.28 224.81 49.11 246.68 12.04 225.99 12.04 229.76 49.11 250.46 88.28 228.59 127.46 250.46 166.63 228.59 205.81 250.46 244.99 228.59 284.16 250.46 323.34 228.59 362.52 250.46 401.69 228.59 440.87 250.46 480.05 228.59 519.23 250.46 558.41 228.59 597.6 250.46 634.67 229.77 634.67 225.99 597.6 246.68 558.41 224.81"/>
            <polygon class="cls-4" points="558.41 214.97 519.23 236.84 480.05 214.97 440.87 236.84 401.69 214.97 362.52 236.84 323.34 214.97 284.16 236.84 244.99 214.97 205.81 236.84 166.63 214.97 127.46 236.84 88.28 214.97 49.11 236.84 12.04 216.15 12.04 219.92 49.11 240.62 88.28 218.74 127.46 240.62 166.63 218.74 205.81 240.62 244.99 218.74 284.16 240.62 323.34 218.74 362.52 240.62 401.69 218.74 440.87 240.62 480.05 218.74 519.23 240.62 558.41 218.74 597.6 240.62 634.67 219.92 634.67 216.15 597.6 236.84 558.41 214.97"/>
            <polygon class="cls-4" points="558.41 205.13 519.23 227 480.05 205.13 440.87 227 401.69 205.13 362.52 227 323.34 205.13 284.16 227 244.99 205.13 205.81 227 166.63 205.13 127.46 227 88.28 205.13 49.11 227 12.04 206.31 12.04 210.08 49.11 230.77 88.28 208.9 127.46 230.77 166.63 208.9 205.81 230.77 244.99 208.9 284.16 230.77 323.34 208.9 362.52 230.77 401.69 208.9 440.87 230.77 480.05 208.9 519.23 230.77 558.41 208.9 597.6 230.77 634.67 210.08 634.67 206.31 597.6 227 558.41 205.13"/>
            <polygon class="cls-4" points="558.41 195.29 519.23 217.16 480.05 195.29 440.87 217.16 401.69 195.29 362.52 217.16 323.34 195.29 284.16 217.16 244.99 195.29 205.81 217.16 166.63 195.29 127.46 217.16 88.28 195.29 49.11 217.16 12.04 196.47 12.04 200.24 49.11 220.93 88.28 199.06 127.46 220.93 166.63 199.06 205.81 220.93 244.99 199.06 284.16 220.93 323.34 199.06 362.52 220.93 401.69 199.06 440.87 220.93 480.05 199.06 519.23 220.93 558.41 199.06 597.6 220.93 634.67 200.24 634.67 196.47 597.6 217.16 558.41 195.29"/>
            <polygon class="cls-4" points="558.41 185.44 519.23 207.32 480.05 185.44 440.87 207.32 401.69 185.44 362.52 207.32 323.34 185.44 284.16 207.32 244.99 185.44 205.81 207.32 166.63 185.44 127.46 207.32 88.28 185.44 49.11 207.32 12.04 186.62 12.04 190.4 49.11 211.09 88.28 189.22 127.46 211.09 166.63 189.22 205.81 211.09 244.99 189.22 284.16 211.09 323.34 189.22 362.52 211.09 401.69 189.22 440.87 211.09 480.05 189.22 519.23 211.09 558.41 189.22 597.6 211.09 634.67 190.4 634.67 186.62 597.6 207.32 558.41 185.44"/>
            <polygon class="cls-4" points="558.41 175.6 519.23 197.47 480.05 175.6 440.87 197.47 401.69 175.6 362.52 197.47 323.34 175.6 284.16 197.47 244.99 175.6 205.81 197.47 166.63 175.6 127.46 197.47 88.28 175.6 49.11 197.47 12.04 176.78 12.04 180.56 49.11 201.25 88.28 179.38 127.46 201.25 166.63 179.38 205.81 201.25 244.99 179.38 284.16 201.25 323.34 179.38 362.52 201.25 401.69 179.38 440.87 201.25 480.05 179.38 519.23 201.25 558.41 179.38 597.6 201.25 634.67 180.56 634.67 176.78 597.6 197.47 558.41 175.6"/>
            <polygon class="cls-4" points="558.41 165.76 519.23 187.63 480.05 165.76 440.87 187.63 401.69 165.76 362.52 187.63 323.34 165.76 284.16 187.63 244.99 165.76 205.81 187.63 166.63 165.76 127.46 187.63 88.28 165.76 49.11 187.63 12.04 166.94 12.04 170.71 49.11 191.41 88.28 169.53 127.46 191.41 166.63 169.53 205.81 191.41 244.99 169.53 284.16 191.41 323.34 169.53 362.52 191.41 401.69 169.53 440.87 191.41 480.05 169.53 519.23 191.41 558.41 169.53 597.6 191.41 634.67 170.71 634.67 166.94 597.6 187.63 558.41 165.76"/>
            <polygon class="cls-4" points="558.41 155.92 519.23 177.79 480.05 155.92 440.87 177.79 401.69 155.92 362.52 177.79 323.34 155.92 284.16 177.79 244.99 155.92 205.81 177.79 166.63 155.92 127.46 177.79 88.28 155.92 49.11 177.79 12.04 157.1 12.04 160.87 49.11 181.56 88.28 159.69 127.46 181.56 166.63 159.69 205.81 181.56 244.99 159.69 284.16 181.56 323.34 159.69 362.52 181.56 401.69 159.69 440.87 181.56 480.05 159.69 519.23 181.56 558.41 159.69 597.6 181.56 634.67 160.87 634.67 157.1 597.6 177.79 558.41 155.92"/>
            <polygon class="cls-4" points="558.41 146.08 519.23 167.95 480.05 146.08 440.87 167.95 401.69 146.08 362.52 167.95 323.34 146.08 284.16 167.95 244.99 146.08 205.81 167.95 166.63 146.08 127.46 167.95 88.28 146.08 49.11 167.95 12.04 147.26 12.04 151.03 49.11 171.72 88.28 149.85 127.46 171.72 166.63 149.85 205.81 171.72 244.99 149.85 284.16 171.72 323.34 149.85 362.52 171.72 401.69 149.85 440.87 171.72 480.05 149.85 519.23 171.72 558.41 149.85 597.6 171.72 634.67 151.03 634.67 147.26 597.6 167.95 558.41 146.08"/>
            <polygon class="cls-4" points="558.41 136.24 519.23 158.11 480.05 136.24 440.87 158.11 401.69 136.24 362.52 158.11 323.34 136.24 284.16 158.11 244.99 136.24 205.81 158.11 166.63 136.24 127.46 158.11 88.28 136.24 49.11 158.11 12.04 137.41 12.04 141.19 49.11 161.88 88.28 140.01 127.46 161.88 166.63 140.01 205.81 161.88 244.99 140.01 284.16 161.88 323.34 140.01 362.52 161.88 401.69 140.01 440.87 161.88 480.05 140.01 519.23 161.88 558.41 140.01 597.6 161.88 634.67 141.19 634.67 137.42 597.6 158.11 558.41 136.24"/>
            <polygon class="cls-4" points="558.41 126.39 519.23 148.26 480.05 126.39 440.87 148.26 401.69 126.39 362.52 148.26 323.34 126.39 284.16 148.26 244.99 126.39 205.81 148.26 166.63 126.39 127.46 148.26 88.28 126.39 49.11 148.26 12.04 127.57 12.04 131.35 49.11 152.04 88.28 130.17 127.46 152.04 166.63 130.17 205.81 152.04 244.99 130.17 284.16 152.04 323.34 130.17 362.52 152.04 401.69 130.17 440.87 152.04 480.05 130.17 519.23 152.04 558.41 130.17 597.6 152.04 634.67 131.35 634.67 127.58 597.6 148.26 558.41 126.39"/>
            <polygon class="cls-4" points="558.41 116.55 519.23 138.42 480.05 116.55 440.87 138.42 401.69 116.55 362.52 138.42 323.34 116.55 284.16 138.42 244.99 116.55 205.81 138.42 166.63 116.55 127.46 138.42 88.28 116.55 49.11 138.42 12.04 117.73 12.04 121.51 49.11 142.2 88.28 120.33 127.46 142.2 166.63 120.33 205.81 142.2 244.99 120.33 284.16 142.2 323.34 120.33 362.52 142.2 401.69 120.33 440.87 142.2 480.05 120.33 519.23 142.2 558.41 120.33 597.6 142.2 634.67 121.51 634.67 117.73 597.6 138.42 558.41 116.55"/>
            <polygon class="cls-4" points="558.41 106.71 519.23 128.58 480.05 106.71 440.87 128.58 401.69 106.71 362.52 128.58 323.34 106.71 284.16 128.58 244.99 106.71 205.81 128.58 166.63 106.71 127.46 128.58 88.28 106.71 49.11 128.58 12.04 107.89 12.04 111.66 49.11 132.35 88.28 110.48 127.46 132.35 166.63 110.48 205.81 132.35 244.99 110.48 284.16 132.35 323.34 110.48 362.52 132.35 401.69 110.48 440.87 132.35 480.05 110.48 519.23 132.35 558.41 110.48 597.6 132.35 634.67 111.66 634.67 107.89 597.6 128.58 558.41 106.71"/>
            <polygon class="cls-4" points="558.41 96.87 519.23 118.74 480.05 96.87 440.87 118.74 401.69 96.87 362.52 118.74 323.34 96.87 284.16 118.74 244.99 96.87 205.81 118.74 166.63 96.87 127.46 118.74 88.28 96.87 49.11 118.74 12.04 98.05 12.04 101.82 49.11 122.51 88.28 100.64 127.46 122.51 166.63 100.64 205.81 122.51 244.99 100.64 284.16 122.51 323.34 100.64 362.52 122.51 401.69 100.64 440.87 122.51 480.05 100.64 519.23 122.51 558.41 100.64 597.6 122.51 634.67 101.82 634.67 98.05 597.6 118.74 558.41 96.87"/>
            <polygon class="cls-4" points="558.41 87.03 519.23 108.9 480.05 87.03 440.87 108.9 401.69 87.03 362.52 108.9 323.34 87.03 284.16 108.9 244.99 87.03 205.81 108.9 166.63 87.03 127.46 108.9 88.28 87.03 49.11 108.9 12.04 88.21 12.04 91.98 49.11 112.67 88.28 90.8 127.46 112.67 166.63 90.8 205.81 112.67 244.99 90.8 284.16 112.67 323.34 90.8 362.52 112.67 401.69 90.8 440.87 112.67 480.05 90.8 519.23 112.67 558.41 90.8 597.6 112.67 634.67 91.98 634.67 88.21 597.6 108.9 558.41 87.03"/>
            <polygon class="cls-4" points="558.41 77.19 519.23 99.06 480.05 77.19 440.87 99.06 401.69 77.19 362.52 99.06 323.34 77.19 284.16 99.06 244.99 77.19 205.81 99.06 166.63 77.19 127.46 99.06 88.28 77.19 49.11 99.06 12.04 78.36 12.04 82.14 49.11 102.83 88.28 80.96 127.46 102.83 166.63 80.96 205.81 102.83 244.99 80.96 284.16 102.83 323.34 80.96 362.52 102.83 401.69 80.96 440.87 102.83 480.05 80.96 519.23 102.83 558.41 80.96 597.6 102.83 634.67 82.14 634.67 78.37 597.6 99.06 558.41 77.19"/>
            <polygon class="cls-4" points="558.41 67.34 519.23 89.22 480.05 67.34 440.87 89.22 401.69 67.34 362.52 89.22 323.34 67.34 284.16 89.22 244.99 67.34 205.81 89.22 166.63 67.34 127.46 89.22 88.28 67.34 49.11 89.22 12.04 68.52 12.04 72.3 49.11 92.99 88.28 71.12 127.46 92.99 166.63 71.12 205.81 92.99 244.99 71.12 284.16 92.99 323.34 71.12 362.52 92.99 401.69 71.12 440.87 92.99 480.05 71.12 519.23 92.99 558.41 71.12 597.6 92.99 634.67 72.3 634.67 68.52 597.6 89.22 558.41 67.34"/>
            <polygon class="cls-4" points="558.41 57.5 519.23 79.37 480.05 57.5 440.87 79.37 401.69 57.5 362.52 79.37 323.34 57.5 284.16 79.37 244.99 57.5 205.81 79.37 166.63 57.5 127.46 79.37 88.28 57.5 49.11 79.37 12.04 58.68 12.04 62.46 49.11 83.15 88.28 61.28 127.46 83.15 166.63 61.28 205.81 83.15 244.99 61.28 284.16 83.15 323.34 61.28 362.52 83.15 401.69 61.28 440.87 83.15 480.05 61.28 519.23 83.15 558.41 61.28 597.6 83.15 634.67 62.46 634.67 58.68 597.6 79.37 558.41 57.5"/>
            <polygon class="cls-4" points="558.41 47.66 519.23 69.53 480.05 47.66 440.87 69.53 401.69 47.66 362.52 69.53 323.34 47.66 284.16 69.53 244.99 47.66 205.81 69.53 166.63 47.66 127.46 69.53 88.28 47.66 49.11 69.53 12.04 48.84 12.04 52.61 49.11 73.31 88.28 51.43 127.46 73.31 166.63 51.43 205.81 73.31 244.99 51.43 284.16 73.31 323.34 51.43 362.52 73.31 401.69 51.43 440.87 73.31 480.05 51.43 519.23 73.31 558.41 51.43 597.6 73.31 634.67 52.61 634.67 48.84 597.6 69.53 558.41 47.66"/>
            <polygon class="cls-4" points="558.41 37.82 519.23 59.69 480.05 37.82 440.87 59.69 401.69 37.82 362.52 59.69 323.34 37.82 284.16 59.69 244.99 37.82 205.81 59.69 166.63 37.82 127.46 59.69 88.28 37.82 49.11 59.69 12.04 39 12.04 42.77 49.11 63.46 88.28 41.59 127.46 63.46 166.63 41.59 205.81 63.46 244.99 41.59 284.16 63.46 323.34 41.59 362.52 63.46 401.69 41.59 440.87 63.46 480.05 41.59 519.23 63.46 558.41 41.59 597.6 63.46 634.67 42.77 634.67 39 597.6 59.69 558.41 37.82"/>
            <polygon class="cls-4" points="558.41 27.98 519.23 49.85 480.05 27.98 440.87 49.85 401.69 27.98 362.52 49.85 323.34 27.98 284.16 49.85 244.99 27.98 205.81 49.85 166.63 27.98 127.46 49.85 88.28 27.98 49.11 49.85 12.04 29.16 12.04 32.93 49.11 53.62 88.28 31.75 127.46 53.62 166.63 31.75 205.81 53.62 244.99 31.75 284.16 53.62 323.34 31.75 362.52 53.62 401.69 31.75 440.87 53.62 480.05 31.75 519.23 53.62 558.41 31.75 597.6 53.62 634.67 32.93 634.67 29.16 597.6 49.85 558.41 27.98"/>
            <polygon class="cls-4" points="558.41 18.14 519.23 40.01 480.05 18.14 440.87 40.01 401.69 18.14 362.52 40.01 323.34 18.14 284.16 40.01 244.99 18.14 205.81 40.01 166.63 18.14 127.46 40.01 88.28 18.14 49.11 40.01 12.04 19.32 12.04 23.09 49.11 43.78 88.28 21.91 127.46 43.78 166.63 21.91 205.81 43.78 244.99 21.91 284.16 43.78 323.34 21.91 362.52 43.78 401.69 21.91 440.87 43.78 480.05 21.91 519.23 43.78 558.41 21.91 597.6 43.78 634.67 23.09 634.67 19.32 597.6 40.01 558.41 18.14"/>
            <polygon class="cls-4" points="244.14 12.54 237.38 12.54 205.81 30.16 174.24 12.54 167.48 12.54 205.81 33.94 244.14 12.54"/>
            <polygon class="cls-4" points="322.49 12.54 315.73 12.54 284.16 30.16 252.59 12.54 245.83 12.54 284.16 33.94 322.49 12.54"/>
            <polygon class="cls-4" points="165.78 12.54 159.03 12.54 127.46 30.16 95.89 12.54 89.13 12.54 127.46 33.94 165.78 12.54"/>
            <polygon class="cls-4" points="400.84 12.54 394.08 12.54 362.52 30.16 330.95 12.54 324.19 12.54 362.52 33.94 400.84 12.54"/>
            <polygon class="cls-4" points="87.43 12.54 80.67 12.54 49.11 30.16 17.54 12.54 12.04 12.54 12.04 13.25 49.11 33.94 87.43 12.54"/>
            <polygon class="cls-4" points="557.56 12.54 550.8 12.54 519.23 30.16 487.66 12.54 480.9 12.54 519.23 33.94 557.56 12.54"/>
            <polygon class="cls-4" points="566.02 12.54 559.26 12.54 597.6 33.94 634.67 13.25 634.67 12.54 629.17 12.54 597.6 30.16 566.02 12.54"/>
            <polygon class="cls-4" points="479.2 12.54 472.44 12.54 440.87 30.16 409.3 12.54 402.54 12.54 440.87 33.94 479.2 12.54"/>
            <polygon class="cls-4" points="226.51 12.54 219.75 12.54 205.81 20.32 191.87 12.54 185.11 12.54 205.81 24.1 226.51 12.54"/>
            <polygon class="cls-4" points="383.21 12.54 376.45 12.54 362.52 20.32 348.57 12.54 341.82 12.54 362.52 24.1 383.21 12.54"/>
            <polygon class="cls-4" points="148.15 12.54 141.4 12.54 127.46 20.32 113.52 12.54 106.76 12.54 127.46 24.1 148.15 12.54"/>
            <polygon class="cls-4" points="461.57 12.54 454.81 12.54 440.87 20.32 426.93 12.54 420.17 12.54 440.87 24.1 461.57 12.54"/>
            <polygon class="cls-4" points="583.65 12.54 576.89 12.54 597.6 24.1 618.3 12.54 611.54 12.54 597.6 20.32 583.65 12.54"/>
            <polygon class="cls-4" points="304.86 12.54 298.1 12.54 284.16 20.32 270.22 12.54 263.46 12.54 284.16 24.1 304.86 12.54"/>
            <polygon class="cls-4" points="539.93 12.54 533.17 12.54 519.23 20.32 505.29 12.54 498.53 12.54 519.23 24.1 539.93 12.54"/>
            <polygon class="cls-4" points="69.8 12.54 63.04 12.54 49.11 20.32 35.17 12.54 28.41 12.54 49.11 24.1 69.8 12.54"/>
            <polygon class="cls-4" points="597.6 14.25 600.66 12.54 594.53 12.54 597.6 14.25"/>
            <polygon class="cls-4" points="52.17 12.54 46.04 12.54 49.11 14.25 52.17 12.54"/>
            <polygon class="cls-4" points="522.3 12.54 516.16 12.54 519.23 14.25 522.3 12.54"/>
            <polygon class="cls-4" points="443.94 12.54 437.8 12.54 440.87 14.25 443.94 12.54"/>
            <polygon class="cls-4" points="287.23 12.54 281.09 12.54 284.16 14.25 287.23 12.54"/>
            <polygon class="cls-4" points="130.53 12.54 124.39 12.54 127.46 14.25 130.53 12.54"/>
            <polygon class="cls-4" points="365.58 12.54 359.45 12.54 362.52 14.25 365.58 12.54"/>
            <polygon class="cls-4" points="208.88 12.54 202.74 12.54 205.81 14.25 208.88 12.54"/>
            <polygon class="cls-4" points="559.41 313.55 520.23 335.42 481.05 313.55 441.87 335.42 402.69 313.55 363.52 335.42 324.34 313.55 285.16 335.42 245.99 313.55 206.81 335.42 167.63 313.55 128.46 335.42 89.28 313.55 50.11 335.42 13.04 314.73 13.04 318.5 50.11 339.19 89.28 317.32 128.46 339.19 167.63 317.32 206.81 339.19 245.99 317.32 285.16 339.19 324.34 317.32 363.52 339.19 402.69 317.32 441.87 339.19 481.05 317.32 520.23 339.19 559.41 317.32 598.6 339.19 635.67 318.5 635.67 314.73 598.6 335.42 559.41 313.55"/>
        </g>
        <path class="cls-5" d="M22.33,22.15H625.67V435.45H22.33ZM620.83,27H27.17V430.58H620.83Z" transform="translate(-0.33 -0.03)"/>
        <rect class="cls-6" x="138.7" y="204.5" width="1.25" height="0.83"/>
        <path class="cls-6" d="M506.05,205.36h-2.49v-.83h2.49Zm-4.16,0H499.4v-.83h2.49Zm-4.16,0h-2.49v-.83h2.49Zm-4.16,0h-2.49v-.83h2.49Zm-4.16,0h-2.49v-.83h2.49Zm-4.16,0h-2.49v-.83h2.49Zm-4.16,0h-2.49v-.83h2.49Zm-4.15,0h-2.49v-.83H477Zm-4.16,0h-2.49v-.83h2.49Zm-4.16,0h-2.49v-.83h2.49Zm-4.16,0H462v-.83h2.49Zm-4.16,0h-2.49v-.83h2.49Zm-4.16,0h-2.49v-.83h2.49Zm-4.16,0h-2.49v-.83H452Zm-4.16,0h-2.49v-.83h2.49Zm-4.16,0h-2.49v-.83h2.49Zm-4.16,0h-2.49v-.83h2.49Zm-4.15,0H432.9v-.83h2.49Zm-4.16,0h-2.49v-.83h2.49Zm-4.16,0h-2.49v-.83h2.49Zm-4.16,0h-2.49v-.83h2.49Zm-4.15,0h-2.49v-.83h2.49Zm-4.16,0h-2.49v-.83h2.49Zm-4.16,0H408v-.83h2.49Zm-4.16,0H403.8v-.83h2.49Zm-4.16,0h-2.49v-.83h2.49Zm-4.16,0h-2.49v-.83H398Zm-4.16,0h-2.49v-.83h2.49Zm-4.16,0h-2.49v-.83h2.49Zm-4.16,0H383v-.83h2.49Zm-4.16,0h-2.49v-.83h2.49Zm-4.15,0h-2.49v-.83h2.49Zm-4.16,0h-2.5v-.83H373Zm-4.16,0h-2.49v-.83h2.49Zm-4.16,0h-2.49v-.83h2.49Zm-4.16,0h-2.49v-.83h2.49Zm-4.16,0h-2.49v-.83h2.49Zm-4.16,0h-2.49v-.83h2.49Zm-4.16,0h-2.49v-.83h2.49Zm-4.16,0h-2.49v-.83H344Zm-4.16,0H337.3v-.83h2.49Zm-4.15,0h-2.49v-.83h2.49Zm-4.16,0H329v-.83h2.49Zm-4.16,0h-2.49v-.83h2.49Zm-4.16,0h-2.49v-.83h2.49Zm-4.16,0h-2.49v-.83H319Zm-4.16,0h-2.49v-.83h2.49Zm-4.16,0h-2.49v-.83h2.49Zm-4.16,0H304v-.83h2.49Zm-4.16,0h-2.49v-.83h2.49Zm-4.16,0h-2.49v-.83h2.49Zm-4.16,0h-2.49v-.83h2.49Zm-4.16,0h-2.49v-.83h2.49Zm-4.16,0h-2.49v-.83h2.49Zm-4.16,0h-2.49v-.83h2.49Zm-4.16,0H275v-.83h2.49Zm-4.16,0H270.8v-.83h2.49Zm-4.16,0h-2.49v-.83h2.49Zm-4.16,0h-2.49v-.83H265Zm-4.16,0h-2.49v-.83h2.49Zm-4.16,0h-2.49v-.83h2.49Zm-4.16,0H250v-.83h2.49Zm-4.16,0h-2.49v-.83h2.49Zm-4.16,0H241.7v-.83h2.49Zm-4.16,0h-2.49v-.83H240Zm-4.16,0h-2.49v-.83h2.49Zm-4.16,0h-2.49v-.83h2.49Zm-4.16,0h-2.49v-.83h2.49Zm-4.16,0h-2.49v-.83h2.49Zm-4.16,0h-2.49v-.83h2.49Zm-4.16,0h-2.49v-.83h2.49Zm-4.16,0h-2.49v-.83h2.49Zm-4.16,0h-2.49v-.83h2.49Zm-4.16,0h-2.49v-.83h2.49Zm-4.16,0H196v-.83h2.49Zm-4.16,0h-2.49v-.83h2.49Zm-4.16,0h-2.49v-.83h2.49Zm-4.16,0h-2.49v-.83H186Zm-4.16,0h-2.49v-.83h2.49Zm-4.16,0H175.2v-.83h2.49Zm-4.16,0H171v-.83h2.49Zm-4.16,0h-2.49v-.83h2.49Zm-4.16,0h-2.49v-.83h2.49Zm-4.16,0h-2.49v-.83h2.49Zm-4.16,0h-2.49v-.83h2.49Zm-4.16,0h-2.49v-.83h2.49Zm-4.16,0H146.1v-.83h2.49Zm-4.16,0h-2.49v-.83h2.49Z" transform="translate(-0.33 -0.03)"/>
        <rect class="cls-6" x="507.38" y="204.5" width="1.25" height="0.83"/>
        <rect class="cls-6" x="94.69" y="367.67" width="1.25" height="0.83"/>
        <path class="cls-6" d="M228.46,368.53H226v-.83h2.48Zm-4.13,0h-2.48v-.83h2.48Zm-4.13,0h-2.48v-.83h2.48Zm-4.13,0h-2.48v-.83h2.48Zm-4.13,0h-2.48v-.83h2.48Zm-4.13,0h-2.48v-.83h2.48Zm-4.13,0h-2.48v-.83h2.48Zm-4.13,0h-2.48v-.83h2.48Zm-4.13,0h-2.48v-.83h2.48Zm-4.13,0H188.8v-.83h2.48Zm-4.13,0h-2.48v-.83h2.48Zm-4.13,0h-2.48v-.83H183Zm-4.13,0h-2.48v-.83h2.48Zm-4.13,0h-2.48v-.83h2.48Zm-4.13,0h-2.48v-.83h2.48Zm-4.13,0H164v-.83h2.48Zm-4.13,0h-2.48v-.83h2.48Zm-4.13,0h-2.48v-.83h2.48Zm-4.13,0h-2.48v-.83h2.48Zm-4.13,0h-2.48v-.83H150Zm-4.13,0h-2.48v-.83h2.48Zm-4.13,0h-2.48v-.83h2.48Zm-4.13,0H135.1v-.83h2.48Zm-4.13,0H131v-.83h2.48Zm-4.13,0h-2.48v-.83h2.48Zm-4.13,0h-2.48v-.83h2.48Zm-4.13,0h-2.48v-.83h2.48Zm-4.13,0h-2.48v-.83h2.48Zm-4.13,0h-2.48v-.83h2.48Zm-4.13,0h-2.48v-.83h2.48Zm-4.13,0h-2.48v-.83h2.48Zm-4.13,0H97.92v-.83h2.48Z" transform="translate(-0.33 -0.03)"/>
        <rect class="cls-6" x="229.78" y="367.67" width="1.25" height="0.83"/>
        <rect class="cls-6" x="423.79" y="367.67" width="1.25" height="0.83"/>
        <path class="cls-6" d="M557.58,368.53H555.1v-.83h2.48Zm-4.13,0H551v-.83h2.48Zm-4.13,0h-2.48v-.83h2.48Zm-4.13,0H542.7v-.83h2.48Zm-4.13,0h-2.48v-.83H541Zm-4.13,0h-2.48v-.83h2.48Zm-4.13,0h-2.48v-.83h2.48Zm-4.13,0h-2.48v-.83h2.48Zm-4.13,0H522v-.83h2.48Zm-4.13,0h-2.48v-.83h2.48Zm-4.13,0h-2.48v-.83h2.48Zm-4.13,0h-2.48v-.83h2.48Zm-4.13,0h-2.48v-.83H508Zm-4.13,0h-2.48v-.83h2.48Zm-4.13,0h-2.48v-.83h2.48Zm-4.13,0h-2.48v-.83h2.48Zm-4.13,0H489v-.83h2.48Zm-4.13,0h-2.48v-.83h2.48Zm-4.13,0h-2.48v-.83h2.48Zm-4.13,0H476.6v-.83h2.48Zm-4.13,0h-2.48v-.83h2.48Zm-4.13,0h-2.48v-.83h2.48Zm-4.13,0h-2.48v-.83h2.48Zm-4.13,0h-2.48v-.83h2.48Zm-4.13,0h-2.48v-.83h2.48Zm-4.13,0h-2.48v-.83h2.48Zm-4.13,0h-2.48v-.83h2.48Zm-4.13,0h-2.48v-.83H446Zm-4.13,0h-2.48v-.83h2.48Zm-4.13,0h-2.48v-.83h2.48Zm-4.13,0h-2.48v-.83h2.48Zm-4.13,0H427v-.83h2.48Z" transform="translate(-0.33 -0.03)"/>
        <rect class="cls-6" x="558.89" y="367.67" width="1.25" height="0.83"/>
        <path class="cls-7" d="M559.82,143.57q-22.74-6.22-45.72-11.22l8.75-40.17q24,5.23,47.82,11.74-10.85,7.69-21.36,15.62Q554.76,131.53,559.82,143.57Z" transform="translate(-0.33 -0.03)"/>
        <path class="cls-8" d="M514.1,132.35q-4.35-8.81-8.91-17.58,7.3,1.49,14.58,3.09Q516.92,125.1,514.1,132.35Z" transform="translate(-0.33 -0.03)"/>
        <path class="cls-9" d="M88.18,143.57q22.74-6.22,45.72-11.22l-8.75-40.17q-24,5.23-47.82,11.74,10.84,7.69,21.36,15.62Q93.24,131.53,88.18,143.57Z" transform="translate(-0.33 -0.03)"/>
        <path class="cls-8" d="M133.9,132.35q4.35-8.81,8.91-17.58-7.3,1.49-14.58,3.09Q131.08,125.1,133.9,132.35Z" transform="translate(-0.33 -0.03)"/>
        <path class="cls-10" d="M128,117.9a909.07,909.07,0,0,1,391.72,0l8.86-40.15a950.18,950.18,0,0,0-409.44,0Z" transform="translate(-0.33 -0.03)"/>
        <polygon class="cls-11" points="222.05 236.68 211.08 239.52 200.1 236.68 211.08 233.84 222.05 236.68"/>
        <text class="cls-12" transform="translate(139.17 101.96) rotate(-14.38)"> </text>
        <text class="cls-12" transform="matrix(0.97, -0.23, 0.23, 0.97, 143.23, 100.92)"> </text>
        <text class="cls-12" transform="matrix(0.98, -0.22, 0.22, 0.98, 147.34, 99.93)"> </text>
        <text class="cls-12" transform="translate(151.47 98.99) rotate(-12.25)"> </text>
        <text class="cls-12" transform="translate(155.59 98.1) rotate(-11.75)"> </text>
        <text class="cls-12" transform="matrix(0.98, -0.2, 0.2, 0.98, 159.73, 97.24)"> </text>
        <text class="cls-12" transform="translate(163.86 96.39) rotate(-10.49)">C</text>
        <text class="cls-12" transform="translate(175.82 94.18) rotate(-9.48)">E</text>
        <text class="cls-12" transform="translate(186.24 92.44) rotate(-8.54)">R</text>
        <text class="cls-12" transform="translate(196.75 90.85) rotate(-7.75)">T</text>
        <text class="cls-12" transform="matrix(0.99, -0.12, 0.12, 0.99, 208.47, 89.27)">I</text>
        <text class="cls-12" transform="matrix(0.99, -0.11, 0.11, 0.99, 214.41, 88.52)">F</text>
        <text class="cls-12" transform="translate(223.73 87.46) rotate(-5.99)">I</text>
        <text class="cls-12" transform="translate(229.67 86.82) rotate(-5.37)">C</text>
        <text class="cls-12" transform="translate(241.81 85.68) rotate(-4.57)">A</text>
        <text class="cls-12" transform="translate(251.99 84.86) rotate(-3.88)">T</text>
        <text class="cls-12" transform="matrix(1, -0.06, 0.06, 1, 264.47, 84.04)"> </text>
        <text class="cls-12" transform="translate(268.69 83.77) rotate(-2.76)">D</text>
        <text class="cls-12" transform="matrix(1, -0.04, 0.04, 1, 281.56, 83.16)">E</text>
        <text class="cls-12" transform="translate(292.15 82.8) rotate(-1.54)"> </text>
        <text class="cls-12" transform="translate(296.38 82.68) rotate(-1.1)">P</text>
        <text class="cls-12" transform="translate(305.92 82.49) rotate(-0.41)">R</text>
        <text class="cls-12" transform="translate(316.84 82.39) rotate(0.32)">O</text>
        <text class="cls-12" transform="translate(330.82 82.48) rotate(1.05)">F</text>
        <text class="cls-12" transform="translate(340.15 82.65) rotate(1.66)">E</text>
        <text class="cls-12" transform="matrix(1, 0.04, -0.04, 1, 350.75, 82.96)">S</text>
        <text class="cls-12" transform="translate(359.93 83.33) rotate(2.84)">S</text>
        <text class="cls-12" transform="translate(369.11 83.79) rotate(3.31)">I</text>
        <text class="cls-12" transform="translate(375.09 84.11) rotate(3.92)">O</text>
        <text class="cls-12" transform="matrix(1, 0.08, -0.08, 1, 389, 85.07)">N</text>
        <text class="cls-12" transform="translate(401.2 86.08) rotate(5.46)">A</text>
        <text class="cls-12" transform="translate(412.63 87.18) rotate(6.13)">L</text>
        <text class="cls-12" transform="translate(422.8 88.28) rotate(6.63)">I</text>
        <text class="cls-12" transform="matrix(0.99, 0.12, -0.12, 0.99, 428.75, 88.97)">S</text>
        <text class="cls-12" transform="matrix(0.99, 0.13, -0.13, 0.99, 437.87, 90.09)">A</text>
        <text class="cls-12" transform="matrix(0.99, 0.15, -0.15, 0.99, 448, 91.46)">T</text>
        <text class="cls-12" transform="translate(459.69 93.2) rotate(8.92)">I</text>
        <text class="cls-12" transform="translate(465.61 94.1) rotate(9.53)">O</text>
        <text class="cls-12" transform="matrix(0.98, 0.18, -0.18, 0.98, 479.37, 96.42)">N</text>

        <!-- START: Firstname surname -->
        <text class="cls-13" transform="translate(168.49 194.99) scale(1.61 1)">
            <tspan class="cls-14">P</tspan>
            <tspan class="cls-15" x="18.58" y="0">r</tspan>
            <tspan x="29.99" y="0">énom Nom</tspan>
        </text>
        <!-- END: Firstname surname -->

        <!-- START: Delivery date -->
        <text class="cls-16" transform="translate(248.25 242.64)">
            N
            <tspan class="cls-17" x="15" y="0">O</tspan>
            <tspan x="29.79" y="0">VEMBRE 2018</tspan>
        </text>
        <!-- END: Delivery date -->

        <!-- START: Description -->
        <text class="cls-18" transform="translate(241.26 264.16)">
            Pour votre participation au programme
            <tspan x="-19.44" y="12">DigiStart-Salesforce qui vous a permis de créer </tspan>
            <tspan x="-30.59" y="24">votre</tspan>
            <tspan class="cls-19" x="-8.36" y="24"> </tspan>
            <tspan x="-5.85" y="24">site</tspan>
            <tspan class="cls-20" x="9.71" y="24"> </tspan>
            <tspan x="12.21" y="24">e-commerce</tspan>
            <tspan class="cls-19" x="68.89" y="24"> </tspan>
            <tspan x="71.4" y="24">avec</tspan>
            <tspan class="cls-20" x="93.08" y="24"> </tspan>
            <tspan x="95.58" y="24">la</tspan>
            <tspan class="cls-21" x="103.36" y="24"> </tspan>
            <tspan x="105.87" y="24">plateforme</tspan>
            <tspan class="cls-20" x="153.66" y="24"> </tspan>
            <tspan x="156.17" y="24">Salesforce </tspan>
            <tspan x="-30.59" y="36">et</tspan>
            <tspan class="cls-22" x="-22.25" y="36"> </tspan>
            <tspan x="-19.92" y="36">votre</tspan>
            <tspan class="cls-22" x="2.31" y="36"> </tspan>
            <tspan x="4.65" y="36">landing</tspan>
            <tspan class="cls-22" x="37.98" y="36"> </tspan>
            <tspan x="40.32" y="36">pag</tspan>
            <tspan class="cls-23" x="58.1" y="36">e</tspan>
            <tspan class="cls-22" x="64.26" y="36"> </tspan>
            <tspan x="66.59" y="36">codé</tspan>
            <tspan class="cls-24" x="89.38" y="36"> </tspan>
            <tspan x="91.71" y="36">par</tspan>
            <tspan class="cls-25" x="106.71" y="36"> </tspan>
            <tspan x="109.05" y="36">vos</tspan>
            <tspan class="cls-25" x="124.61" y="36"> </tspan>
            <tspan x="126.94" y="36">soins</tspan>
            <tspan class="cls-24" x="150.28" y="36"> </tspan>
            <tspan x="152.61" y="36">en</tspan>
            <tspan class="cls-25" x="163.73" y="36"> </tspan>
            <tspan x="166.06" y="36">HTML</tspan>
            <tspan class="cls-25" x="192.73" y="36"> </tspan>
            <tspan x="195.07" y="36">et </tspan>
            <tspan x="76.69" y="48">CSS</tspan>
        </text>
        <!-- END: Description -->
        
        <!-- START: Sign 1 -->
        <text class="cls-26" transform="translate(132.38 384.97)">
            Binta Jammeh
            <tspan x="-29.44" y="12">Directrice des programmes</tspan>
        </text>
        <!-- END: Sign 1 -->

        <!-- START: Sign 2 -->
        <text class="cls-26" transform="translate(435.33 384.97)">
            Francisco Abarca Del Rio
            <tspan x="0" y="12">Solution Engineer Director</tspan>
        </text>
        <!-- END: Sign 2 -->


        <text class="cls-16" transform="translate(171.07 145.23)">
            CE CE
            <tspan class="cls-27" x="58.75" y="0">R</tspan>
            <tspan x="71.29" y="0">TIFIC</tspan>
            <tspan class="cls-28" x="124.82" y="0">A</tspan>
            <tspan x="136.88" y="0">T EST DELIVRE A</tspan>
        </text>
        <polygon class="cls-11" points="455.61 236.68 444.64 239.52 433.66 236.68 444.64 233.84 455.61 236.68"/>
    </g>
    <image width="1200" height="839" transform="translate(460.65 285.99) scale(0.06)" xlink:href="../assets/salesforce_logo.png"/>
    <text class="cls-29" transform="translate(583 454.73)">© Freepik.com</text>
    <image width="842" height="595" transform="translate(104.67 273.97) scale(0.12)" xlink:href="../assets/logo-konexio-final.png"/>
</svg>